<svg xmlns="http://www.w3.org/2000/svg" width="12" height="12" viewBox="0 0 512 512"><path fill="#85b09a" d="M497.6 0 334.4.2A14.4 14.4 0 0 0 320 14.6v33.3a14.4 14.4 0 0 0 14.7 14.4l73.6-2.7 2.1 2.1-278.9 278.8a12 12 0 0 0 0 17l23 23a12 12 0 0 0 17 0l278.9-278.9 2.1 2.1-2.7 73.6a14.4 14.4 0 0 0 14.3 14.7h33.3a14.4 14.4 0 0 0 14.4-14.4l.2-163.2A14.4 14.4 0 0 0 497.6 0zM432 288h-16a16 16 0 0 0-16 16v154a6 6 0 0 1-6 6H54a6 6 0 0 1-6-6V118a6 6 0 0 1 6-6h154a16 16 0 0 0 16-16V80a16 16 0 0 0-16-16H48a48 48 0 0 0-48 48v352a48 48 0 0 0 48 48h352a48 48 0 0 0 48-48V304a16 16 0 0 0-16-16z"/></svg>
