<svg width="635" height="106" viewBox="0 0 635 106" fill="none" xmlns="http://www.w3.org/2000/svg">
<path d="M168.21 20.88L175.73 41.75H160.92L168.2 20.88H168.21ZM162.57 7.77996L141.61 64.06H153.13L157.58 51.3H179.2L183.91 64.06H195.65L174.06 7.77996H162.56H162.57Z" fill="currentColor"/>
<path d="M212.69 39.5V54.51H222.75C226.67 54.51 229.15 54.39 230.2 54.17C231.81 53.85 233.13 53.12 234.14 51.93C235.16 50.74 235.67 49.16 235.67 47.16C235.67 45.48 235.27 44.05 234.49 42.87C233.71 41.7 232.58 40.85 231.1 40.31C229.62 39.77 226.41 39.5 221.47 39.5H212.69ZM212.69 17.13V30.16H219.8C224.03 30.16 226.66 30.09 227.68 29.97C229.54 29.74 230.99 29.07 232.06 27.96C233.12 26.84 233.65 25.38 233.65 23.56C233.65 21.74 233.19 20.4 232.28 19.32C231.36 18.23 230 17.57 228.19 17.34C227.12 17.21 224.03 17.15 218.92 17.15H212.69V17.13ZM201.79 7.78996H223.3C227.56 7.78996 230.73 7.96996 232.83 8.34996C234.92 8.71996 236.79 9.48996 238.45 10.67C240.1 11.84 241.47 13.41 242.58 15.37C243.68 17.32 244.23 19.52 244.23 21.95C244.23 24.58 243.55 27 242.2 29.2C240.85 31.4 239.01 33.05 236.69 34.15C239.97 35.15 242.49 36.85 244.26 39.25C246.02 41.65 246.9 44.49 246.9 47.74C246.9 50.3 246.32 52.79 245.19 55.21C244.05 57.63 242.5 59.57 240.52 61.01C238.55 62.45 236.12 63.35 233.23 63.69C231.41 63.89 227.05 64.02 220.12 64.07H201.78V7.77996L201.79 7.78996Z" fill="currentColor"/>
<path d="M256.49 7.77996V64.06H297.43V54.5H267.39V39.3H294.36V29.74H267.39V17.33H296.38V7.77996H256.49Z" fill="currentColor"/>
<path d="M317.94 31.58H325.98C331.19 31.58 334.45 31.35 335.74 30.9C337.04 30.44 338.05 29.65 338.78 28.52C339.52 27.4 339.88 25.99 339.88 24.31C339.88 22.42 339.39 20.89 338.43 19.73C337.46 18.57 336.1 17.84 334.35 17.53C333.46 17.4 330.81 17.34 326.42 17.34H317.94V31.59V31.58ZM307.04 64.06V7.77996H329.94C335.7 7.77996 339.88 8.28996 342.49 9.29996C345.1 10.31 347.19 12.11 348.75 14.7C350.32 17.29 351.1 20.24 351.1 23.57C351.1 27.79 349.92 31.28 347.55 34.03C345.18 36.79 341.65 38.52 336.93 39.24C339.27 40.67 341.21 42.24 342.73 43.96C344.26 45.67 346.31 48.71 348.9 53.08L355.47 64.05H342.46L334.65 51.77C331.85 47.42 329.93 44.68 328.91 43.55C327.88 42.41 326.78 41.63 325.63 41.21C324.48 40.79 322.65 40.58 320.14 40.58H317.92V64.05H307.02L307.04 64.06Z" fill="currentColor"/>
<path d="M386.82 33.9H410.19V56.31C407.91 58.61 404.61 60.64 400.29 62.39C395.97 64.14 391.6 65.01 387.17 65.01C381.54 65.01 376.63 63.78 372.44 61.3C368.26 58.83 365.12 55.3 363.01 50.72C360.91 46.12 359.85 41.12 359.85 35.73C359.85 29.87 361.03 24.65 363.38 20.11C365.72 15.55 369.16 12.06 373.68 9.62996C377.13 7.75996 381.42 6.82996 386.57 6.82996C393.25 6.82996 398.47 8.29996 402.23 11.22C405.99 14.14 408.4 18.18 409.48 23.34L398.7 25.45C397.95 22.69 396.52 20.51 394.42 18.91C392.34 17.31 389.72 16.52 386.6 16.52C381.86 16.52 378.08 18.1 375.28 21.24C372.48 24.39 371.08 29.07 371.08 35.27C371.08 41.96 372.5 46.98 375.34 50.31C378.18 53.65 381.9 55.32 386.49 55.32C388.76 55.32 391.04 54.86 393.33 53.93C395.62 53 397.58 51.88 399.22 50.55V43.46H386.82V33.9Z" fill="currentColor"/>
<path d="M420.64 7.77996V64.06H461.58V54.5H431.54V39.3H458.5V29.74H431.54V17.33H460.53V7.77996H420.64Z" fill="currentColor"/>
<path d="M471.45 8.24996V64.06H509.38V54.5H482.35V8.24996H471.45Z" fill="currentColor"/>
<path d="M528.42 17.33V54.51H536.52C539.55 54.51 541.74 54.33 543.08 53.97C544.84 53.52 546.3 52.74 547.46 51.64C548.62 50.55 549.56 48.74 550.3 46.23C551.03 43.71 551.4 40.29 551.4 35.95C551.4 31.61 551.04 28.28 550.3 25.96C549.57 23.64 548.54 21.82 547.22 20.52C545.9 19.22 544.23 18.34 542.21 17.88C540.69 17.52 537.73 17.34 533.3 17.34H528.42V17.33ZM517.52 7.77996H537.38C541.86 7.77996 545.27 8.13996 547.62 8.84996C550.78 9.81996 553.48 11.55 555.73 14.03C557.99 16.52 559.7 19.56 560.87 23.15C562.04 26.75 562.63 31.18 562.63 36.45C562.63 41.09 562.08 45.07 560.99 48.42C559.65 52.51 557.72 55.83 555.22 58.37C553.34 60.29 550.8 61.78 547.59 62.86C545.19 63.66 541.99 64.06 537.98 64.06H517.53V7.77996H517.52Z" fill="currentColor"/>
<path d="M582.8 7.77996H571.9V64.05H582.8V7.77996Z" fill="currentColor"/>
<path d="M593.51 7.77996V64.06H634.45V54.5H604.41V39.3H631.38V29.74H604.41V17.33H633.4V7.77996H593.51Z" fill="currentColor"/>
<path d="M156.54 88.84L160.93 90.3C160.26 92.86 159.13 94.76 157.57 96.01C156 97.26 154.02 97.88 151.61 97.88C148.63 97.88 146.18 96.82 144.26 94.69C142.34 92.56 141.38 89.65 141.38 85.97C141.38 82.07 142.34 79.04 144.28 76.88C146.2 74.72 148.74 73.65 151.88 73.65C154.62 73.65 156.86 74.49 158.57 76.19C159.59 77.19 160.36 78.63 160.87 80.51L156.38 81.62C156.12 80.41 155.56 79.45 154.72 78.75C153.88 78.04 152.85 77.69 151.65 77.69C149.99 77.69 148.64 78.32 147.6 79.57C146.56 80.82 146.04 82.84 146.04 85.63C146.04 88.59 146.55 90.7 147.58 91.96C148.6 93.22 149.93 93.85 151.56 93.85C152.77 93.85 153.8 93.45 154.67 92.64C155.54 91.84 156.16 90.57 156.54 88.85" fill="#85B09A"/>
<path d="M170.43 85.76C170.43 88.42 171.02 90.43 172.19 91.79C173.36 93.17 174.86 93.85 176.67 93.85C178.48 93.85 179.96 93.17 181.12 91.81C182.28 90.45 182.86 88.41 182.86 85.69C182.86 82.97 182.3 81 181.17 79.67C180.04 78.36 178.54 77.69 176.68 77.69C174.82 77.69 173.3 78.36 172.16 79.7C171.02 81.04 170.45 83.06 170.45 85.76M165.78 85.91C165.78 83.53 166.12 81.53 166.8 79.91C167.31 78.72 168 77.65 168.89 76.7C169.77 75.76 170.74 75.05 171.79 74.58C173.19 73.96 174.8 73.66 176.62 73.66C179.93 73.66 182.57 74.73 184.55 76.87C186.53 79.02 187.53 81.99 187.53 85.8C187.53 89.61 186.54 92.55 184.58 94.68C182.62 96.81 179.98 97.89 176.69 97.89C173.4 97.89 170.7 96.83 168.73 94.7C166.76 92.57 165.78 89.64 165.78 85.91Z" fill="#85B09A"/>
<path d="M207.75 74.04L203.72 90.04L199.67 74.04H192.9V97.49H197.09L197.1 79.03L201.51 97.49H205.88L210.34 79.03V97.49H214.54V74.04H207.75Z" fill="#85B09A"/>
<path d="M225.48 78.02V84.67H227.95C229.73 84.67 230.92 84.55 231.52 84.3C232.12 84.06 232.6 83.68 232.93 83.15C233.27 82.62 233.44 82.02 233.44 81.33C233.44 80.48 233.2 79.77 232.72 79.22C232.24 78.66 231.63 78.32 230.9 78.18C230.36 78.08 229.27 78.02 227.65 78.02H225.47H225.48ZM220.94 97.49V74.04H228.2C230.95 74.04 232.75 74.16 233.59 74.39C234.87 74.74 235.95 75.51 236.81 76.69C237.68 77.86 238.11 79.39 238.11 81.25C238.11 82.7 237.86 83.89 237.36 84.88C236.86 85.86 236.23 86.64 235.46 87.19C234.69 87.75 233.91 88.12 233.11 88.3C232.04 88.52 230.47 88.64 228.43 88.64H225.48V97.48H220.94V97.49Z" fill="#85B09A"/>
<path d="M243.83 74.25V97.49H259.62V93.52H248.37V74.25H243.83Z" fill="#85B09A"/>
<path d="M264.75 74.04V97.49H281.79V93.52H269.29V87.18H280.52V83.2H269.29V78.02H281.37V74.04H264.75Z" fill="#85B09A"/>
<path d="M300.14 74.04L295.68 81.05L291.25 74.04H285.96L292.99 85.29L285.23 97.49H290.68L295.66 89.56L300.65 97.49H306.09L298.35 85.28L305.41 74.04H300.14Z" fill="#85B09A"/>
<path d="M329.74 74.04H325.2V97.49H329.74V74.04Z" fill="#85B09A"/>
<path d="M349.58 74.04V89.74L340.38 74.04H335.99V97.49H340.18V82.13L349.25 97.49H353.78V74.04H349.58Z" fill="#85B09A"/>
<path d="M360.46 74.04V97.49H365V87.53H374.36V83.56H365V78.02H375.85V74.04H360.46Z" fill="#85B09A"/>
<path d="M386.03 83.97H389.37C391.54 83.97 392.89 83.87 393.44 83.68C393.97 83.49 394.4 83.16 394.7 82.69C395.02 82.22 395.17 81.64 395.17 80.93C395.17 80.14 394.97 79.5 394.57 79.01C394.16 78.52 393.6 78.22 392.86 78.1C392.5 78.04 391.4 78.02 389.56 78.02H386.04V83.97H386.03ZM381.49 97.49V74.04H391.02C393.42 74.04 395.17 74.25 396.25 74.67C397.34 75.1 398.2 75.85 398.86 76.91C399.51 78 399.83 79.23 399.83 80.62C399.83 82.38 399.33 83.83 398.35 84.97C397.36 86.12 395.88 86.85 393.91 87.14C394.9 87.74 395.7 88.39 396.33 89.1C396.97 89.82 397.83 91.09 398.91 92.91L401.65 97.48H396.24L392.97 92.37C391.8 90.55 391.01 89.4 390.58 88.92C390.15 88.45 389.69 88.12 389.22 87.95C388.74 87.78 387.98 87.69 386.93 87.69H386.02V97.48H381.48L381.49 97.49Z" fill="#85B09A"/>
<path d="M414.77 79.52L417.87 88.2H411.73L414.76 79.52H414.77ZM412.41 74.04L403.69 97.49H408.49L410.34 92.17H419.32L421.27 97.49H426.19L417.22 74.04H412.4H412.41Z" fill="#85B09A"/>
<path d="M429.33 89.87L433.73 89.42C434 90.97 434.53 92.1 435.34 92.83C436.15 93.56 437.24 93.91 438.62 93.91C440.08 93.91 441.18 93.58 441.92 92.94C442.65 92.3 443.03 91.55 443.03 90.68C443.03 90.13 442.87 89.66 442.56 89.27C442.25 88.88 441.71 88.54 440.93 88.25C440.4 88.07 439.2 87.72 437.31 87.23C434.88 86.59 433.18 85.83 432.2 84.91C430.82 83.61 430.14 82.04 430.14 80.19C430.14 79 430.46 77.88 431.11 76.84C431.76 75.8 432.69 75 433.92 74.45C435.14 73.91 436.61 73.64 438.33 73.64C441.16 73.64 443.27 74.28 444.7 75.58C446.12 76.87 446.87 78.6 446.94 80.76L442.41 80.96C442.22 79.75 441.79 78.88 441.16 78.35C440.52 77.82 439.57 77.56 438.28 77.56C436.99 77.56 435.93 77.85 435.19 78.41C434.71 78.76 434.47 79.26 434.47 79.87C434.47 80.42 434.69 80.89 435.14 81.29C435.72 81.79 437.11 82.31 439.31 82.87C441.51 83.41 443.15 83.97 444.19 84.55C445.25 85.14 446.07 85.93 446.67 86.93C447.27 87.93 447.57 89.18 447.57 90.66C447.57 92 447.21 93.26 446.5 94.43C445.78 95.6 444.77 96.47 443.46 97.04C442.16 97.61 440.53 97.89 438.58 97.89C435.75 97.89 433.57 97.21 432.05 95.84C430.52 94.47 429.62 92.48 429.33 89.86" fill="#85B09A"/>
<path d="M451.67 74.04V78.02H458.33V97.49H462.87V78.02H469.51V74.04H451.67Z" fill="#85B09A"/>
<path d="M478.85 83.97H482.2C484.36 83.97 485.73 83.87 486.26 83.68C486.8 83.49 487.22 83.16 487.53 82.69C487.83 82.22 487.99 81.64 487.99 80.93C487.99 80.14 487.79 79.5 487.39 79.01C486.99 78.52 486.42 78.22 485.68 78.1C485.31 78.04 484.22 78.02 482.38 78.02H478.85V83.97ZM474.31 97.49V74.04H483.84C486.24 74.04 487.98 74.25 489.07 74.67C490.16 75.1 491.02 75.85 491.68 76.91C492.33 78 492.66 79.23 492.66 80.62C492.66 82.38 492.17 83.83 491.18 84.97C490.19 86.12 488.72 86.85 486.75 87.14C487.73 87.74 488.54 88.39 489.17 89.1C489.81 89.82 490.66 91.09 491.75 92.91L494.49 97.48H489.08L485.81 92.37C484.65 90.55 483.85 89.4 483.42 88.92C482.99 88.45 482.54 88.12 482.06 87.95C481.58 87.78 480.82 87.69 479.77 87.69H478.86V97.48H474.32L474.31 97.49Z" fill="#85B09A"/>
<path d="M503.31 74.04V86.74C503.31 88.75 503.36 90.06 503.48 90.66C503.68 91.61 504.13 92.39 504.86 92.97C505.59 93.56 506.58 93.84 507.84 93.84C509.1 93.84 510.09 93.56 510.74 93.01C511.39 92.46 511.79 91.79 511.92 90.99C512.05 90.19 512.12 88.86 512.12 87.01V74.04H516.66V86.36C516.66 89.17 516.54 91.15 516.3 92.32C516.05 93.48 515.6 94.46 514.94 95.26C514.28 96.06 513.4 96.7 512.3 97.17C511.2 97.65 509.76 97.88 507.99 97.88C505.85 97.88 504.22 97.62 503.1 97.11C502 96.59 501.13 95.92 500.48 95.09C499.84 94.26 499.42 93.4 499.21 92.49C498.91 91.15 498.76 89.17 498.76 86.55V74.04H503.31Z" fill="#85B09A"/>
<path d="M537.68 88.84L542.07 90.3C541.39 92.86 540.28 94.76 538.71 96.01C537.15 97.26 535.15 97.88 532.75 97.88C529.77 97.88 527.32 96.82 525.4 94.69C523.48 92.56 522.52 89.65 522.52 85.97C522.52 82.07 523.49 79.04 525.42 76.88C527.35 74.72 529.89 73.65 533.02 73.65C535.76 73.65 538 74.49 539.72 76.19C540.74 77.19 541.5 78.63 542.02 80.51L537.53 81.62C537.26 80.41 536.71 79.45 535.87 78.75C535.03 78.04 534.01 77.69 532.8 77.69C531.14 77.69 529.79 78.32 528.76 79.57C527.72 80.82 527.2 82.84 527.2 85.63C527.2 88.59 527.71 90.7 528.74 91.96C529.76 93.22 531.09 93.85 532.72 93.85C533.92 93.85 534.95 93.45 535.83 92.64C536.7 91.84 537.32 90.57 537.7 88.85" fill="#85B09A"/>
<path d="M546.22 74.04V78.02H552.88V97.49H557.42V78.02H564.06V74.04H546.22Z" fill="#85B09A"/>
<path d="M568.81 74.04H573.35V86.74C573.35 88.75 573.4 90.06 573.51 90.66C573.7 91.61 574.17 92.39 574.9 92.97C575.62 93.56 576.62 93.84 577.88 93.84C579.14 93.84 580.13 93.56 580.77 93.01C581.43 92.46 581.82 91.79 581.96 90.99C582.08 90.19 582.15 88.86 582.15 87.01V74.04H586.69V86.36C586.69 89.17 586.57 91.15 586.32 92.32C586.08 93.48 585.63 94.46 584.96 95.26C584.31 96.06 583.42 96.7 582.32 97.17C581.22 97.65 579.78 97.88 578.01 97.88C575.87 97.88 574.24 97.62 573.14 97.11C572.04 96.59 571.16 95.92 570.52 95.09C569.88 94.26 569.45 93.4 569.25 92.49C568.96 91.15 568.81 89.17 568.81 86.55V74.04Z" fill="#85B09A"/>
<path d="M597.91 83.97H601.26C603.43 83.97 604.78 83.87 605.32 83.68C605.87 83.49 606.29 83.16 606.6 82.69C606.9 82.22 607.06 81.64 607.06 80.93C607.06 80.14 606.86 79.5 606.45 79.01C606.05 78.52 605.49 78.22 604.75 78.1C604.39 78.04 603.29 78.02 601.45 78.02H597.92V83.97H597.91ZM593.37 97.49V74.04H602.9C605.29 74.04 607.04 74.25 608.13 74.67C609.22 75.1 610.08 75.85 610.74 76.91C611.39 78 611.72 79.23 611.72 80.62C611.72 82.38 611.22 83.83 610.24 84.97C609.25 86.12 607.78 86.85 605.81 87.14C606.79 87.74 607.6 88.39 608.23 89.1C608.87 89.82 609.73 91.09 610.81 92.91L613.55 97.48H608.14L604.87 92.37C603.7 90.55 602.9 89.4 602.48 88.92C602.05 88.45 601.59 88.12 601.12 87.95C600.64 87.78 599.88 87.69 598.83 87.69H597.91V97.48H593.37V97.49Z" fill="#85B09A"/>
<path d="M617.88 74.04V97.49H634.92V93.52H622.42V87.18H633.65V83.2H622.42V78.02H634.5V74.04H617.88Z" fill="#85B09A"/>
<path d="M112.41 64.29C112.41 63.79 110.52 63.5 111.94 62.24V62.16C112.83 62.61 113.23 63.52 112.41 64.29ZM108.73 58.8C108.9 58.67 109.04 58.53 109.21 58.39C109.31 58.53 109.42 58.67 109.52 58.8M109.21 66.57V66.65C108.97 66.56 108.73 66.46 108.49 66.37C107.47 66.32 106.47 67.07 106 65.6C106.29 65.35 106.58 65.1 106.85 64.86C108.06 64.9 110.37 65.09 109.21 66.58M105.37 50.96C103.99 50.96 103.36 51.33 102.24 50.38H102.17C102.01 50.57 101.86 50.76 101.7 50.96H101.78V51.04C101.21 51.04 98.79 49.06 98.9 48.69C99.03 48.29 99.67 48.23 99.97 48.09C101.8 48.65 104.72 48.75 106 50.31C105.79 50.52 105.58 50.74 105.37 50.96ZM104.82 57.99V58.08C104.82 58.08 104.77 58.03 104.74 57.99C104.39 57.99 104.21 57.24 104.19 56.93C104.54 56.65 104.87 56.38 105.21 56.12C106.33 56.86 105.82 57.37 104.82 57.99ZM104.43 60.04C105.15 60.41 105.17 60.89 104.66 61.51C103.79 61.51 104.1 60.42 104.43 60.04ZM104.7 64.34C104.05 64.24 103.65 63.64 102.87 63.64C102.39 63.64 100.52 63.86 100.67 63.09C100.77 62.56 103.04 62.88 103.5 62.74C104 62.83 104.49 62.9 104.98 62.98C105.14 63.31 105.29 63.64 105.45 63.96C105.48 63.99 105.5 64.01 105.53 64.04C105.25 64.14 104.98 64.24 104.71 64.34M99.42 53.57C99.56 53.32 99.68 53.08 99.81 52.83C100.31 52.88 100.8 52.9 101.07 53.32C100.94 53.46 100.81 53.6 100.67 53.73C100.26 53.68 99.84 53.62 99.41 53.56M98.95 42.27C99.07 42.19 99.31 42.61 99.19 42.76C98.96 42.83 98.76 42.42 98.95 42.27ZM100.51 46.12V46.28C99.99 46.28 99.62 46.38 99.65 45.63C99.94 45.8 100.23 45.96 100.51 46.12ZM103.96 46.2H104.04V46.36C104.04 46.36 103.99 46.42 103.96 46.45C103.62 46.61 103.28 46.77 102.94 46.94C102.41 46.94 102.02 46.6 102.07 46.04C102.71 46.1 103.33 46.15 103.95 46.2M102.61 36.22V36.14C103.13 36.4 103.3 36.71 103.09 37.29C102.56 37.29 102.32 36.62 102.61 36.23M104.88 39.17C106.38 39.64 106.76 40.91 105.51 41.95C103.59 41.95 103.42 40.03 104.88 39.17ZM105.12 36.06C105.35 35.98 105.59 35.9 105.82 35.82C106.22 36.21 106.16 36.97 105.49 37.02C105.07 37.04 105.03 36.39 105.05 36.07H105.13L105.12 36.06ZM107.04 64.25C106.6 64.66 106.31 63.72 106.29 63.38C106.57 63.45 107.55 63.79 107.04 64.25ZM107.86 59.94C108.27 60.03 108.69 60.11 109.11 60.19V60.35C108.98 60.49 108.85 60.62 108.71 60.76H108.64C108.64 61.17 107.37 60.33 107.23 60.11C107.44 60.06 107.64 60.01 107.86 59.94ZM105.5 70.66C105.5 71.32 104.77 71.07 104.71 70.49C104.97 70.54 105.24 70.6 105.5 70.66ZM106.67 71.64C106.92 71.84 107.54 72.27 107.37 72.65C107.19 73.1 105.44 73.66 105.1 73.18C104.54 72.41 106.39 71.88 106.76 71.72H106.68V71.64H106.67ZM107.22 71.72H107.37C107.32 71.79 107.27 71.83 107.22 71.88V71.72ZM112.22 74.17V74.25C112.12 74.22 112.02 74.2 111.91 74.17H112.22ZM98.37 40.8C98.21 40.8 97.49 40.76 97.74 40.39C97.95 40.44 98.16 40.51 98.37 40.55V40.8ZM97.82 54.21V54.13C97.8 53.91 97.76 53.69 97.74 53.47H98.21V53.55H98.28C98.13 53.77 97.97 53.99 97.82 54.21ZM98.13 69.26C97.42 69.26 96.77 69.69 96.18 69.01C96.2 68.96 96.23 68.91 96.25 68.85C96.31 68.82 96.36 68.8 96.41 68.77V68.68C96.99 68.82 97.56 68.96 98.14 69.09V69.25L98.13 69.26ZM95.73 70.62C95.68 70.27 96.03 70.4 96.02 70.41C96.3 70.63 95.96 70.67 95.73 70.62ZM95.55 71.46C95.52 71.93 95.5 72.39 95.47 72.85C94.47 72.85 93.94 72.38 94.14 71.3C94.61 71.33 95.08 71.35 95.55 71.38V71.46ZM92.65 79.97C92.71 79.91 92.76 79.86 92.81 79.8C93.58 79.85 94.16 79.93 94.61 80.54C94.85 80.54 93.05 81.64 92.64 79.97M91.31 63.61V63.69H91.23C91.28 64.07 91.33 64.44 91.39 64.8C91.23 65.72 89.71 65.48 89.25 65.01C88.19 63.95 89.16 62.96 90.06 62.22V62.14C91.13 62.16 94.79 62.04 93.19 63.61H91.31ZM91.43 71.27C91.08 71.36 90.97 70.95 91.31 70.8C91.47 70.47 91.68 71.19 91.43 71.27ZM88.18 84.06C87.31 84.17 86.95 82.79 87.48 82.25C87.95 82.45 88.42 82.63 88.89 82.82C88.89 82.38 90.11 82.26 90.14 82.98C90.18 83.9 88.82 83.97 88.19 84.06M89.13 85.77C88.89 85.77 89.41 84.9 89.53 84.79V84.7C90.39 85.04 89.99 85.76 89.13 85.76M85.68 79.79C85.99 79.61 86.31 79.41 86.62 79.22C87.03 79.33 87.72 79.74 87.29 80.27C86.77 80.89 85.98 80.32 85.68 79.79ZM89.76 80.2V80.45H88.66V80.29H88.73C88.91 80.18 89.1 80.07 89.28 79.96C89.43 80.04 89.59 80.12 89.75 80.2M84.97 76.68C85.55 76.47 86.12 76.25 86.69 76.03C86.72 76 86.74 75.97 86.77 75.94C86.69 75.89 86.62 75.83 86.54 75.78V75.53C86.66 75.4 86.8 75.25 86.92 75.12C87.84 75.17 88.75 75.23 89.67 75.28C89.46 75.73 89.25 76.16 89.05 76.6C89.04 76.71 89.04 76.83 89.03 76.95C89.27 78.75 85.49 78.6 84.97 76.67M83.65 81.25C82.37 81.25 82.39 80.04 83.26 79.45C84.09 79.45 85.06 79.37 85.53 80.02C85.53 80.46 83.97 81.08 83.65 81.25ZM82.24 76.26C82.37 76.21 82.5 76.15 82.63 76.09C82.93 76.23 83.23 76.6 82.81 76.8C82.45 76.98 82.14 76.6 82.24 76.25M81.65 68.98C80.85 68.76 81.29 67.26 81.69 66.84V66.76C82.59 67.13 82.56 67.81 82.79 68.73C82.39 68.73 82.13 69.11 81.65 68.98ZM80.12 64.88H80.04C79.56 65.31 79.05 65.75 78.56 66.18C78.55 66.25 78.53 66.31 78.51 66.38C78.68 67.61 77.55 67.44 76.83 67.91C75.71 67.91 76.21 66.42 74.32 67.91C73.74 67.91 73.18 67.69 72.68 67.98V68.07C72.28 68.48 71.89 68.88 71.5 69.3V69.62H71.59V69.71C72.11 69.71 72.48 69.21 73.1 69.43C75.24 70.19 69.03 74.91 68.14 74.52C67.84 74.39 67.7 74.03 67.65 73.69C67.41 72.05 68.65 71.83 69.55 71.01C69.46 70.78 69.35 70.56 69.26 70.33C68.95 69.52 70.67 64.6 71.32 64.23C71.77 63.96 75.36 64.47 75.75 64.79C76.18 65.14 76.29 65.77 76.36 66.34H76.59C76.75 66.16 76.92 65.99 77.07 65.8C77.07 65.36 77.05 64.91 77.05 64.46C77.52 63.67 78 62.88 78.47 62.09C79.25 62.27 83.39 64.7 83.64 65.36C83.43 65.31 83.21 65.25 83.01 65.2V65.29C82.59 65.33 82.16 65.38 81.74 65.43C81.19 65.29 80.84 64.81 80.12 64.88ZM78.87 71.86C78.05 71.33 79.13 70.81 79.57 70.69C79.85 71.21 79.64 72.36 78.87 71.86ZM76.06 77.72C74.36 77.67 75.38 73.37 76.14 72.73C77.91 73.3 77.59 77.76 76.06 77.72ZM76.23 83.55C75.97 83.87 75.49 83.54 75.35 83.28C75.42 83.09 75.5 82.9 75.58 82.71C75.9 82.76 76.55 83.15 76.23 83.56M73.2 78.77C72.77 78.63 72.78 78.06 72.53 77.73C72.48 77.7 72.42 77.67 72.37 77.64C71.96 78.11 71.54 78.57 71.12 79.03C71.09 79.06 71.06 79.09 71.04 79.11C70.76 79.28 70.47 79.43 70.18 79.59C65.51 79.59 69.35 75.95 70.73 74.69C71.14 75.25 71.55 75.79 71.95 76.34C72.51 76.77 73.7 76.56 74.05 77.21C74.28 77.66 73.8 78.94 73.2 78.76M66.11 84.42V84.5C63.04 84.5 64.52 81.36 66.19 80.49C68.87 82.24 67.9 82.77 66.11 84.42ZM67.13 79.35V79.59C66.73 79.59 66.64 79.97 66.19 79.68C66.25 79.55 66.3 79.4 66.35 79.27C66.56 79.3 66.77 79.32 66.98 79.35H67.13ZM62.14 67.84C62.64 67.04 63.13 66.24 63.62 65.45C64.24 65.78 64.54 66.31 64.87 66.93C64.9 66.9 64.93 66.86 64.94 66.84C65.66 66.84 65.79 65.74 66.78 66.06C69.02 66.78 67.77 68.22 66.59 68.96C65.74 68.96 65.13 69.16 64.79 69.94H64.87V70.02C64.9 69.97 64.93 69.91 64.94 69.86C67.17 69.86 65.21 72.65 64.53 73.29C62.38 75.32 61.84 69.08 62.14 67.84ZM62.99 86.05C63.15 86.3 63.3 86.54 63.46 86.78C63.49 86.81 63.51 86.83 63.54 86.86C62.86 86.86 62.63 86.75 62.99 86.05ZM61.73 52.93C62.25 53.22 62.48 53.69 61.89 53.99C60.89 53.99 60.91 53.18 61.73 52.93ZM63.46 65.19C63.35 65.3 63.25 65.41 63.15 65.52C63.07 65.5 62.99 65.45 62.91 65.44C62.79 65.19 62.65 64.95 62.52 64.7H62.6C62.78 64.65 62.97 64.59 63.15 64.54C63.26 64.75 63.36 64.97 63.46 65.19ZM65.11 51.21C65.05 51.24 65 51.26 64.95 51.29V51.21C64.95 51.21 65.01 51.15 65.03 51.12C65.06 51.15 65.08 51.17 65.11 51.21ZM61.74 46.79C61.9 46.7 62.05 46.62 62.22 46.54C63.76 47.42 64 48.64 63.47 50.23V50.3H64.33C64.33 50.3 65.07 48.28 65.75 49.25C65.76 49.4 65.78 49.57 65.79 49.72C65.5 50.72 63.61 52.33 62.6 51.5C62.15 51.13 62.28 50.56 61.98 50.14C61.68 49.8 61.38 49.44 61.07 49.09C60.92 48.42 61.67 47.57 61.74 46.78M60.57 78.35V78.27C60.9 78.72 60.84 79.09 60.65 79.57C60.19 79.57 60.43 78.55 60.57 78.35ZM60.17 87.18C59.84 87.18 59.57 86.77 59.62 86.45V86.37C59.99 86.54 60.2 86.7 60.32 87.11C60.27 87.13 60.21 87.16 60.16 87.19M59.54 91.61C59.67 91.33 59.8 91.06 59.93 90.8C60.11 91.33 60.4 91.73 59.54 91.61ZM59.78 93.03C59.19 93.52 58.99 92.4 59.07 92.02C59.3 92.12 60.25 92.65 59.78 93.03ZM57.74 85.32C57.74 85.49 57.07 87.64 56.95 88.02C56.95 88.12 56.96 88.23 56.97 88.33C57.35 89.56 57.3 90.69 56.56 91.69C55.81 91.69 54.93 87.35 54.83 86.45C54.8 86.4 54.78 86.35 54.75 86.29C53.67 86.29 53.54 81.26 54.99 80.48V80.32C53.8 80.32 55.06 78.72 55.37 78.52C56.44 78.73 56.79 79.05 56.86 80.23H56.78C56.28 80.32 55.78 80.39 55.29 80.47C55.24 80.5 55.19 80.53 55.13 80.55C55.13 80.55 56.53 81.92 57.01 82.03C57.2 82.92 57.37 83.83 57.56 84.73C58.08 84.73 60.2 84.08 60.08 85.32C60 86.07 58.05 85.38 57.72 85.3M56 94.71C55.14 94.71 53.76 95.29 54.27 93.32C54.17 93.23 54.06 93.15 53.96 93.07V92.91C54.17 92.71 54.38 92.52 54.59 92.33V92.25C55.42 92.66 55.48 93.41 55.53 94.37H55.61C55.74 94.42 55.87 94.48 56.01 94.53V94.7L56 94.71ZM54.49 49.87C54.7 48.7 54.49 47.73 55.05 46.78C56.31 47.43 56.14 49.26 57 50.23C57.54 50.84 58.68 50.84 59.07 51.44C59.26 51.72 58.89 52 58.73 52.18C57.33 52.18 56.45 53.55 54.53 52.96C52.88 52.45 54.33 50.73 54.49 49.87ZM53.54 40.9C52.61 40.02 53.9 39.32 54.58 39.09C55.38 39.34 56.11 39.33 56.54 40.15H56.46C55.84 40.77 54.36 41.66 53.54 40.9ZM53.56 67.62C53.33 68.15 53.1 68.66 52.87 69.19C52.69 70.51 52.79 71.62 52.24 72.71C52.18 72.71 52.12 74.38 51.54 74.53C50.17 74.92 50.69 72.89 50.52 72.14C50.44 72.06 50.36 71.98 50.27 71.89C49.08 71.01 49.51 68.08 49.18 66.66C49.26 66.55 49.34 66.44 49.41 66.33C49 66.33 48.9 63.34 48.94 62.73C49.39 62.51 49.83 62.29 50.27 62.08C52.56 62.16 53.86 65.44 53.55 67.62M51.99 58.56C51.41 58.56 51.35 57.86 51.52 57.5C51.92 57.75 52.05 58.04 51.99 58.56ZM47.9 54.83C47.63 54.2 49.61 53.62 50.03 53.4C51.2 53.52 53.31 54.96 52.03 56.22C50.84 57.38 50.49 54.78 49.18 55.2H49.11C49.11 55.2 48.07 55.21 47.91 54.83M47.77 72.95C47.69 73.04 47.61 73.11 47.54 73.2C47.33 73.14 47.13 73.09 46.92 73.04H46.76V72.87C46.84 72.77 46.92 72.66 47 72.55C47.26 72.63 47.52 72.71 47.78 72.79V72.95H47.77ZM47.07 81.13C47.4 81.35 47.57 81.58 47.7 81.95C47.05 81.95 46.73 81.73 47.07 81.13ZM45.59 66.08C46.03 66.11 46.48 66.13 46.92 66.16V66.24C47.18 66.24 46.86 67.36 46.75 67.47C45.98 68.3 44.91 66.93 45.59 66.08ZM45.85 72.05C45.28 72.61 44.18 71.81 44.8 71.08C45.2 71.22 46.04 71.4 45.85 72.05ZM44.25 58.48V58.39C45.04 58.49 45.22 59.22 44.8 59.85C43.95 59.85 43.67 59.08 44.25 58.47M44.37 69.95C43.51 70.79 42.06 69.29 42.99 68.35V68.28C43.49 68.41 45.14 69.2 44.37 69.95ZM43.39 83.49V83.58H43.23C43.23 83.08 42.73 82.83 43.15 82.26V82.18C43.58 82.6 43.78 82.96 43.39 83.49ZM42.84 75.22V75.31H42.68C42.68 74.8 42.1 74.59 42.3 73.91C42.9 74.16 43 74.59 42.84 75.22ZM41.59 61.81C41.51 61.89 41.43 61.97 41.35 62.06V62.14C40.79 62.14 39.32 62.23 39.71 61.22C40.36 60.71 41.02 60.2 41.67 59.68C43.2 60.1 42.52 61.24 41.6 61.81M40.72 73.67C38.98 75.6 37.08 72.91 38.85 71.87C39.7 71.99 41.77 72.49 40.72 73.67ZM37.99 62.14H37.91C37.73 62.19 37.55 62.25 37.36 62.3C37.39 62.04 37.41 61.76 37.44 61.49V61.41C37.65 61.44 37.86 61.46 38.07 61.49C38.04 61.71 38.02 61.94 37.99 62.15M36.74 68.36C36.74 67.89 37.45 67.53 37.76 67.3C38.52 68.16 37.5 68.34 36.74 68.36ZM36.43 73.69C36.93 74.07 37.25 74.51 37.36 75.16C36.39 75.16 35.37 74.45 36.43 73.69ZM36.34 69.52C36.29 69.57 36.24 69.63 36.19 69.69V69.52H36.34ZM34.65 69.57C33.78 69.25 34 68.17 34.54 67.63C35.16 67.77 35.79 67.91 36.42 68.04C36.42 68.89 35.5 69.87 34.64 69.56M32.57 57.07C33.65 57.3 35.83 57.83 34.61 59.2C33.25 59.2 30.33 58.39 32.57 57.07ZM32.49 68.36C32.49 68.36 32.44 68.42 32.41 68.44C31.12 68.32 30.92 67.13 31.94 66.4C32.32 66.94 32.47 67.68 32.56 68.36H32.48H32.49ZM29.75 48.03C29.44 48 29.12 47.96 28.81 47.92C28.79 47.91 28.76 47.89 28.73 47.88C28.36 47.5 27.98 47.13 27.62 46.74C26.65 46.34 25.67 45.93 24.7 45.53C24.66 45.45 24.62 45.38 24.58 45.3C24.18 43.71 26.99 44.5 27.49 44.89H27.58C27.73 44.7 27.89 44.51 28.04 44.32C30.7 44.32 28.28 41.94 29.68 41.13V41.04C31.07 41.37 32.02 44.58 31.68 45.75C31.4 46.03 31.13 46.32 30.86 46.6C30.87 46.65 30.89 46.71 30.89 46.75C30.71 47.42 30.45 47.91 29.75 48.02M29.05 58.7H28.97C28.97 58.96 27.85 58.6 27.72 58.54H27.64C27.3 58.97 26.96 59.41 26.62 59.84C25.74 59.84 24.95 59.82 24.43 59.11C25.03 59.11 25.2 57.31 25.96 57.15C26.54 57.31 27.13 57.48 27.72 57.64C27.95 57.29 28.19 56.93 28.42 56.58C29.25 57.12 29.1 57.77 29.05 58.71M24.82 62.64C25.08 62.83 25.34 63.02 25.61 63.21C25.22 63.21 24.45 63.47 24.82 62.64ZM23.88 48.82C23.93 48.71 23.99 48.6 24.04 48.49H24.74V48.9C24.46 48.87 24.17 48.85 23.88 48.82ZM23.18 45.55C22.45 45.55 22.04 44.75 22.24 44.08C22.97 44.34 23.33 44.55 23.33 45.47C23.28 45.5 23.22 45.52 23.17 45.55M21.89 60.8C21.01 60.57 21.85 59.4 22.31 59.21C22.94 59.7 22.95 61.08 21.89 60.8ZM20.41 70.14C18.8 69.16 20.7 68.33 21.6 68.04C23.31 68.74 21.86 71.02 20.41 70.14ZM21.76 75.89V75.73H21.92C21.86 75.78 21.81 75.83 21.76 75.89ZM20.04 79.4C19.21 79.6 19.46 78.22 19.71 77.86C20.18 78.06 20.89 79.19 20.04 79.4ZM19.87 70.74C20 70.8 19.69 71.28 19.47 70.9C19.61 70.85 19.73 70.79 19.87 70.74ZM19.47 61.82C19.58 62.04 19.68 62.26 19.79 62.48H19.71V62.56H19.47V61.82ZM22.69 57C22.69 57 21.89 57.29 21.52 57.07C21.07 56.81 21.42 56.15 21.6 55.86C21.98 56.24 22.34 56.61 22.7 57M20.35 53.97C21.03 54.03 21.71 54.08 22.38 54.13C22.28 54.35 22.18 54.56 22.07 54.79C22.05 54.82 22.02 54.84 21.99 54.87C21.36 54.84 20.73 54.82 20.11 54.79V54.71C20.08 54.52 20.06 54.33 20.03 54.14C20.13 54.09 20.23 54.03 20.34 53.98M20.34 53.89C20.32 53.68 20.3 53.46 20.26 53.23C20.3 53.45 20.32 53.68 20.34 53.89ZM24.25 42.69C24.41 42.56 24.56 42.42 24.72 42.28V42.2C25.02 42.65 24.95 43.13 24.25 42.85V42.69ZM24.88 27.31C24.91 27.26 24.92 27.2 24.96 27.15C25.89 27.53 26.47 29.13 25.03 29.28C24.03 29.38 24.42 27.68 24.89 27.31M23.71 20.11H23.79C24 20.06 24.2 20 24.42 19.94C24.55 20 24.68 20.05 24.8 20.11H24.96C24.96 20.92 23.7 20.99 23.7 20.11M26.12 25.26C26.1 25.53 26.07 25.8 26.04 26.08C25.68 26.08 25.49 25.5 25.49 25.18C25.7 25.21 25.91 25.23 26.11 25.26M27.29 38.76C26.27 38.76 25.61 37.87 25.49 36.88H25.57C25.81 36.83 26.04 36.76 26.28 36.72C27.37 36.89 28.09 37.76 27.3 38.76M26.83 27.14C26.99 27.2 27.73 27.59 27.41 27.88C26.93 28.31 26.81 27.44 26.83 27.14ZM28.39 39.9V39.82H28.55C28.52 39.88 28.5 39.93 28.47 39.98V39.9H28.39ZM28.08 18.06C28.42 18.12 28.75 18.17 29.09 18.23C29.09 19.12 28.14 18.61 27.92 18.23C27.98 18.18 28.02 18.12 28.08 18.06ZM30.35 26.81C31.54 26.92 31.93 27.75 32.77 28.45C32.77 28.88 32.1 29.11 31.84 29.26H31.76C31.76 29.26 30.6 29.31 30.35 29.18C30.22 29.29 30.09 29.4 29.96 29.51C28.45 29.51 29.07 27.35 30.35 26.81ZM33.01 17.24V17.32H33.09V17.48C32.99 17.54 32.88 17.59 32.77 17.65C32.38 17.76 31.99 17.86 31.6 17.97C31.49 17.73 31.39 17.48 31.29 17.24H33.01ZM35.18 28.41C34.49 29.54 31.9 28.36 33.25 27.05C33.81 27.07 35.77 27.45 35.18 28.41ZM35.59 15.6C36.21 15.92 36.61 16.37 36.61 17.15C35.75 17.15 35.16 16.69 35.12 15.77C35.28 15.71 35.43 15.66 35.59 15.6ZM36.46 10.94V10.86C36.84 11.03 37.24 11.19 37.63 11.35V11.6C37.42 11.79 37.22 11.97 37.01 12.17C36.65 12.01 36.28 11.84 35.91 11.68C36.1 11.43 36.27 11.19 36.46 10.94ZM36.61 23.29C35.18 23.29 36.65 21.71 37.08 21.49C38.24 22.12 37.39 22.74 36.61 23.29ZM36.22 56.25C37.28 56.74 37.1 57.81 35.83 57.81C35.33 57.81 36.06 56.4 36.22 56.25ZM35.83 18.71C36.31 18.92 36.64 19.18 37 19.61C36.76 19.77 36.53 19.93 36.29 20.1C35.44 20.1 35.36 19.22 35.83 18.71ZM34.1 43.82C33.97 43.85 33.84 43.87 33.71 43.91H33.63V43.82C33.58 43.85 33.53 43.87 33.48 43.91C33.48 44.38 32.51 44.3 32.31 44.02C31.73 43.21 32.25 41.63 33.01 41.29C33.85 41.34 35.11 41.2 35.66 41.79C36.17 42.35 35.8 43.8 35.11 44.01C34.78 43.94 34.43 43.88 34.1 43.82ZM33.01 49.38C33.01 49.38 33.06 49.33 33.09 49.3C33.17 49.14 33.25 48.97 33.33 48.81C33.56 48.92 33.8 49.02 34.03 49.14C33.7 49.22 33.35 49.3 33.01 49.38ZM34.34 53.87C36.17 54.76 33.94 56.8 32.72 55.31C31.85 54.26 33.74 53.97 34.34 53.87ZM39.27 54.04C40.02 54.19 43.54 56.74 42.84 57.52C42.49 57.88 39.22 56.47 39.04 56.14C38.69 55.52 39.03 54.58 39.27 54.04ZM39.75 18.21C40.17 18.63 41.11 20.31 39.98 20.49C38.51 20.72 38.89 18.72 39.75 18.21ZM40.45 30.56C40.65 30.7 41.09 31.29 40.61 31.36C40.12 31.44 40.29 30.77 40.45 30.56ZM40.45 14.37V14.29C40.78 14.29 41.89 14.31 41.69 14.88C41.48 15.44 40.16 15.12 40.45 14.37ZM46.24 23.86V23.45C46.38 23.5 46.5 23.56 46.64 23.61V23.77H46.56V23.86H46.24ZM45.69 62.96C46.96 63.88 46.68 64.94 45.46 65.5V65.58C44.54 65.58 45.07 63.44 45.69 62.96ZM44.99 49.62C44.26 49.56 44.83 48.42 45.07 48.16C45.57 48.48 45.99 49.71 44.99 49.62ZM44.44 22.8C44.44 22.35 44.43 22.12 44.75 21.81V21.73C45.52 22.11 45.39 22.73 44.44 22.8ZM43.81 27.7C44.03 27.85 44.45 28.48 43.9 28.53C43.39 28.56 43.55 27.88 43.81 27.7ZM42.4 23.37V22.8C42.56 22.93 42.71 23.07 42.87 23.2H42.79C42.66 23.26 42.53 23.31 42.4 23.37ZM43.18 50.61C45.08 51.39 46.16 54.82 43.23 54.93C42.16 54.97 41.19 52.33 41.75 51.43C42.23 51.16 42.7 50.89 43.18 50.61ZM42.01 15.85C42.94 16.34 43.02 17.45 43.34 18.38C43.26 18.55 43.18 18.71 43.1 18.87C43.07 18.84 43.05 18.81 43.02 18.79C43.05 18.85 43.08 18.9 43.1 18.95C43.16 19 43.22 19.05 43.29 19.09C44.31 19.26 45.9 18.65 46.39 17.73C46.34 17.67 46.28 17.62 46.23 17.56C46.65 17.56 46.9 17.07 47.47 17.23C47.8 17.32 48.02 17.61 48.1 17.93C48.48 19.39 47.15 19.37 46.4 19.93V20.34C45.27 20.34 43.44 21.05 42.04 20.64C40.72 20.26 41.25 16.66 42.01 15.93V15.85ZM43.89 14.38V14.46C43.91 14.68 43.94 14.9 43.96 15.11H43.89V15.19C43.51 15.19 43.36 14.71 43.34 14.38H43.89ZM44.28 16.83C44.12 16.88 43.96 16.94 43.81 16.99C43.71 16.75 43.61 16.5 43.5 16.26C43.89 16.38 44.09 16.48 44.29 16.83M46.02 15.44H45.93V15.52C45.33 15.52 45.25 14.76 45.47 14.38V14.3C45.65 14.68 45.83 15.06 46.02 15.44ZM47.04 11.51C47.6 11.55 48.73 11.66 48.5 12.47C48.07 14.04 46.72 13.84 46.03 12.74V12.66C45.68 12.66 44.59 13.61 44.42 12.77C44.22 11.82 46.57 11.77 47.04 11.51ZM48.3 29.59V29.51C48.3 29.51 48.34 29.45 48.37 29.43C48.35 29.48 48.32 29.54 48.3 29.59ZM47.67 25.59C47.66 25.37 48.04 26.07 47.85 26.12C47.62 26.18 47.64 25.71 47.67 25.59ZM47.2 44.73C47.33 44.54 47.46 44.34 47.59 44.16C47.59 44.53 47.79 45.07 47.2 44.73ZM50.95 52.15C50.49 52.45 50.01 52.76 49.55 53.07C48.74 53.15 47.93 53.23 47.12 53.31C45.86 52.67 47.94 49.09 48.61 48.57C49.36 48.89 51.48 51.2 50.95 52.15ZM49.09 30.5C49.75 30.8 50.23 31.3 49.71 31.97V31.89C48.85 31.89 48.76 31.09 49.09 30.5ZM49.01 19.78V19.7C49.56 19.79 50.8 20.56 49.93 21.18C48.98 21.85 48.33 20.5 49.01 19.78ZM49.17 13.23C49.4 13.45 49.64 13.67 49.87 13.89C49.76 13.92 49.66 13.94 49.56 13.97C49.21 13.97 49.12 13.52 49.17 13.23ZM51.36 37.94C52.64 38.56 51.95 40.14 50.71 39.52C49.8 39.08 50.89 38.18 51.36 37.94ZM50.89 12.01V11.93C51.07 11.96 51.25 11.98 51.44 12.01C51.49 12.04 51.54 12.06 51.59 12.09V12.25C51.46 12.42 51.33 12.58 51.2 12.74C50.89 12.74 50.82 12.23 50.89 12.01ZM51.99 23.95H52.07C52.02 24 51.97 24.06 51.91 24.11C51.94 24.06 51.97 24 51.99 23.95ZM52.14 23.3C52.17 23.41 52.2 23.52 52.22 23.63H52.14V23.3ZM52.67 49.34C51.2 49.58 51.38 46.97 52.22 46.36V46.27C52.57 46.69 53.66 49.17 52.67 49.33M54.73 28.44C54.6 28.55 54.47 28.66 54.33 28.77H54.25C54.18 28.74 54.1 28.72 54.01 28.68V28.19C54.22 28.25 54.43 28.3 54.64 28.36C54.66 28.39 54.69 28.41 54.72 28.44M54.32 23.12C55.96 24.23 55.16 25.03 53.38 25.08C53.38 24 53.36 23.59 54.32 23.12ZM54.87 7.99C54.97 8.29 55.08 8.59 55.18 8.89C55 9.11 54.81 9.33 54.63 9.54C54.6 9.57 54.57 9.59 54.55 9.63C54.55 8.82 53.88 8.63 54.86 7.99M55.25 5.78C55.77 5.8 57.18 5.97 56.66 6.8C56 7.84 54.7 6.88 55.25 5.78ZM55.96 2.51V3.17C55.45 3.17 55.16 2.89 55.18 2.35C55.44 2.4 55.7 2.46 55.96 2.51ZM56.27 4.4C56.39 4.34 56.53 4.29 56.65 4.23C57.23 4.27 57.75 4.27 58.14 4.64C58.24 4.64 57.35 5.03 56.42 4.64H56.27V4.4ZM58.22 6.77V6.85C58.04 6.75 57.85 6.63 57.67 6.52V6.27C57.77 6.22 57.88 6.16 57.98 6.11C58.12 6.33 58.24 6.55 58.37 6.76H58.21L58.22 6.77ZM60.33 7.59C60.59 7.81 60.86 8.03 61.12 8.25H61.04V8.33C60.59 8.61 60.15 8.88 59.71 9.15C58.91 9.15 57.93 9.23 57.36 8.74C56.4 8.74 60.07 7.64 60.33 7.59ZM60.41 3.91C61.48 4.05 62.16 4.58 62.6 5.55C62.35 5.83 62.08 6.09 61.82 6.37C60.84 6.37 60.43 5.27 59.55 5.06V4.98H59.47C59.47 4.56 60.13 4.11 60.41 3.91ZM62.6 2.52C62.6 2.52 62.55 2.41 62.52 2.36C62.54 2.41 62.57 2.47 62.6 2.52ZM63.07 7.82C63.47 7.79 63.85 7.76 64.24 7.73C64.24 7.73 64.34 7.73 64.39 7.73C64.63 7.39 64.86 7.05 65.1 6.7C66.81 7.3 66.71 8.23 66.03 9.65H65.88C65.51 9.68 65.15 9.7 64.78 9.73C64.49 9.46 64.18 9.19 63.89 8.93C63.73 8.82 62.77 8.16 63.06 7.83M66.41 13.92C65.35 14.66 64.37 13.08 65.41 12.27C65.96 12.4 67.38 13.22 66.41 13.92ZM67.05 19.96C67.84 19.96 70.38 19.65 70.33 20.77C70.29 21.54 68.38 21.54 67.84 21.93V22.01H67.76C67.76 21.22 66.33 21.05 67.05 19.96ZM67.91 8.27C68.1 8.38 68.28 8.48 68.46 8.59C68.33 8.92 68.2 9.25 68.07 9.57V9.66C67.65 9.66 67.83 8.49 67.91 8.27ZM69.26 5.72C68.71 6.2 68.4 4.98 68.39 4.59C68.7 4.67 69.79 5.25 69.26 5.72ZM74.49 8.92C74.56 9.05 74.65 9.2 74.73 9.33C73.76 9.33 71.82 10.6 70.94 10.1C70.66 9.79 70.39 9.47 70.11 9.17C69.98 9.33 69.85 9.49 69.71 9.66V9.57C68.75 9.57 68.65 8.42 69.28 7.91C69.85 7.78 70.4 7.65 70.96 7.53C72.12 7.96 73.26 8.49 74.48 8.92M73.69 6.47V6.39C73.98 6.52 74.27 6.66 74.55 6.79C74.75 6.79 74.44 7.37 74.29 7.46C73.46 7.88 72.76 7.01 73.69 6.47ZM75.03 9.74C76.06 10.07 75.98 11.08 74.79 10.96H74.63V11.13C74.63 11.13 74.87 12.05 74.53 12.21C73.74 12.59 72.45 11.3 72.52 10.48C73.04 10.51 73.56 10.53 74.08 10.56C73.87 10.56 74.9 9.81 75.03 9.75M76.35 16.38C74.3 16.38 71.36 18.6 69.83 15.93C69.5 15.36 70.1 14.77 70.48 14.42C70.72 14.5 70.95 14.58 71.19 14.66C71.55 14.66 71.47 15.1 71.88 15.1C73 15.1 74.56 14.03 75.09 15.65C75.15 15.63 75.2 15.6 75.25 15.57C75.25 15.3 76.26 16 76.34 16.39M76.18 13.65C76.35 12.59 79.25 13.07 80.26 11.88C81.2 12.21 82.53 13.39 82.61 14.5C82.4 14.58 82.19 14.66 81.98 14.74C81.53 14.91 81.09 15.07 80.65 15.23C79.52 15.23 75.85 15.68 76.18 13.65ZM83.31 16.55C83.91 16.67 87.17 17.48 86.73 18.28C86.28 19.09 81.47 18.6 83.31 16.55ZM83.86 13.04C84.7 13.43 84.94 13.93 85.03 14.92C84.92 14.97 84.8 15.02 84.7 15.06C83.43 15.18 82.74 13.76 83.86 13.04ZM86.68 10.5C87.24 10.86 87.62 11.43 88.25 11.65C88.25 12.38 87.12 12.31 86.68 12.22H86.6C86.1 12.27 85.61 12.33 85.12 12.38C85.01 12.36 84.91 12.33 84.8 12.3C84.8 10.91 85.62 10.75 86.68 10.5ZM88.96 15.82C88.4 15.82 87.91 15.42 88.33 14.92C88.84 15.07 89.11 15.25 88.96 15.82ZM89.03 19.3C88.33 20.34 86.81 19.25 87.94 18.52C88.22 18.55 89.39 18.78 89.03 19.3ZM89.9 11.81C90.06 11.92 90.21 12.02 90.37 12.14V12.47C90.21 12.55 90.06 12.63 89.9 12.71C89.69 12.66 89.48 12.6 89.27 12.55C89.48 12.3 89.69 12.06 89.9 11.81ZM90.13 9.69C90.39 9.72 90.65 9.74 90.91 9.77C90.93 10.07 90.96 10.37 90.99 10.67C90.52 11.54 89.14 10.53 90.12 9.69M89.65 15.49C89.88 15.52 90.12 15.55 90.35 15.57C90.35 16.31 89.54 16.22 89.65 15.49ZM92.07 23.83C90.8 23.83 89.66 23.89 88.7 24.49C87.81 24.49 85.05 24.03 85.55 22.59C85.89 21.6 87.59 21.5 88.38 21.14C88.76 21.47 88.85 21.77 88.93 22.28C90.04 22.28 93.33 21.78 92.06 23.83M92.38 18.19H92.3C92.3 18.44 91.5 17.79 91.43 17.45C91.89 17.59 92.15 17.77 92.37 18.19M92.52 12.22V13.28H92.44V13.36H92.36C92.36 12.99 91.91 12.71 91.96 12.22H92.52ZM92.84 16.22C92.33 16.22 92.02 16.05 92.13 15.49C92.37 15.73 92.6 15.98 92.84 16.22ZM93.54 21.95C93.54 21.95 93.6 21.9 93.62 21.87C93.59 21.63 93.57 21.38 93.54 21.13C93.83 21.37 94.12 21.62 94.4 21.87H93.94V21.95H93.78V22.03C93.74 22.27 93.68 22.52 93.62 22.77V22.85C93.44 22.79 93.26 22.73 93.07 22.68C93.23 22.44 93.38 22.19 93.53 21.95M93.61 18.43H94.08V18.68C93.98 18.73 93.87 18.79 93.77 18.84C93.7 18.81 93.61 18.79 93.53 18.76H93.45C93.51 18.65 93.56 18.54 93.61 18.43ZM94.86 13.69C95.46 13.88 95.84 14.19 96.11 14.75C96.11 15.33 94.63 15.15 94.39 14.85C94.07 14.44 94.57 13.92 94.86 13.68M93.92 23.66C93.98 23.52 94.03 23.39 94.08 23.25C94.24 23.28 94.39 23.3 94.55 23.34V23.42C94.57 23.5 94.6 23.58 94.63 23.66H93.92ZM93.63 25.49C93.25 25.97 91.86 25.29 92.67 24.8C93.03 24.8 94.06 24.93 93.63 25.49ZM92.51 28.64C92.03 28.64 91.74 27.74 91.73 27.33C91.86 27.28 91.99 27.22 92.12 27.17C93.14 27.47 93.39 28.02 92.51 28.64ZM90.99 43.26C90.51 43.82 89.71 42.86 90.01 42.3V42.22C90.42 42.27 91.56 42.58 90.99 43.26ZM88.68 69.12C87.88 69.12 87.12 69.19 86.56 68.63C86.56 68.63 87.13 68.16 87.58 68.32C87.77 68.23 87.95 68.15 88.13 68.07V67.98C88.68 68.12 89.22 68.26 89.77 68.39C89.75 68.51 89.72 68.61 89.69 68.73C89.36 68.86 89.01 69 88.67 69.13M86.4 70.61C86.58 70.44 86.76 70.28 86.95 70.12C87.34 70.45 87.52 70.71 87.27 71.19V71.27C86.98 71.05 86.7 70.84 86.41 70.61M87.74 71.67C88.49 71.76 89.15 72 89.15 72.89H88.99C88.99 73.14 86.93 72.49 86.72 72.41C86.67 72.36 86.61 72.3 86.56 72.25C86.96 72.05 87.35 71.86 87.74 71.67ZM87.35 62.18V62.1C87.28 62.07 87.19 62.04 87.11 62.01V61.85C87.11 61.85 87.17 61.8 87.19 61.76V61.67C87.48 61.87 87.77 62.06 88.06 62.25C88.06 62.25 87.31 64.09 86.41 63.15C85.8 62.5 86.89 62.15 87.36 62.17M85.32 39.92C84.64 39.92 84.07 39.4 84.55 38.78C85.2 38.94 85.84 39.1 86.5 39.27V39.43H86.42C86.05 39.59 85.68 39.76 85.31 39.92M85.47 55.3C85.37 55.08 85.26 54.86 85.16 54.64C85.61 54.65 85.94 54.71 85.94 55.22C85.78 55.25 85.63 55.28 85.47 55.31M83.59 72.16C83.72 72.1 83.85 72.05 83.99 72C84.5 72.09 85.03 72.16 85.55 72.25H85.63C85.16 72.66 84.69 73.06 84.22 73.47V73.55C83.64 73.55 83.5 72.61 83.6 72.16M84 70.53V70.61C83.89 70.8 83.79 70.99 83.68 71.19C83.37 71.11 83.06 71.03 82.74 70.94C82.84 70.78 82.95 70.61 83.06 70.45C83.37 70.48 83.68 70.5 84 70.54M83.21 52.29C83.36 52.24 83.52 52.18 83.67 52.13C83.85 52.33 84.13 52.72 83.8 52.9C83.4 53.12 83.23 52.64 83.2 52.29M82.88 26.12C83.18 26.2 83.46 26.28 83.75 26.36C83.75 26.94 82.94 26.66 82.88 26.12ZM80.68 53.03C80.07 53.03 79.19 52.99 79.66 52.12C80.26 52.26 80.49 52.42 80.68 53.03ZM85.3 68.82H85.15C84.81 68.77 84.47 68.7 84.13 68.65C84.2 68.55 84.29 68.44 84.36 68.34C84.77 68.41 85.08 68.47 85.29 68.82M84.79 62.3C84.29 62.48 84.12 61.77 84.12 61.37C84.25 61.33 84.38 61.27 84.51 61.21C84.77 61.37 85.3 62.1 84.78 62.3M84.21 49.29C84.44 49.44 84.96 50.18 84.54 50.38C84.17 50.54 83.61 50.17 83.33 50.01H83.25C82.91 50.08 82.57 50.17 82.23 50.26C82 50.33 81.76 50.42 81.53 50.5V50.42C80.58 50.42 80.17 49.3 80.83 48.62V48.53C80.83 48.53 80.72 48.48 80.67 48.45C80.65 48.43 80.62 48.39 80.6 48.37C81.25 48.52 83.76 48.98 84.22 49.29M84.43 23.83C83.85 23.98 84.01 22.94 84.13 22.68C84.4 22.83 85.05 23.67 84.43 23.83ZM84.2 28.57C84.49 28.68 84.78 28.78 85.07 28.9C85.07 29.64 83.63 29.31 84.2 28.57ZM86.55 50.25C86.6 50.05 86.66 49.86 86.71 49.66V49.59C87.03 49.84 86.94 50.13 86.55 50.25ZM88.2 39.53C88.2 37.66 85.24 35.15 88.91 34.13C90.29 35.29 90.41 36.19 89.53 37.65C89.48 37.68 89.42 37.7 89.38 37.73C89.38 38.6 89.43 39.49 88.59 39.77C88.47 39.69 88.33 39.6 88.2 39.52M88.59 42.22C88.43 42.28 88.28 42.33 88.13 42.38C88.1 42.14 88.08 41.89 88.05 41.64H88.52V41.73C88.55 41.89 88.57 42.05 88.59 42.22ZM88.84 32.43C88.54 33.09 87.07 32.26 86.71 32.07V31.83H86.78C87.02 31.78 87.26 31.72 87.49 31.66C87.77 31.71 89.09 31.87 88.83 32.42M87.09 30.18V30.35C86.39 30.35 86 30.72 85.38 30.1C85.53 29.97 85.69 29.82 85.84 29.69C86.25 29.85 86.68 30.02 87.09 30.18ZM85.66 32.33C85.26 32.72 84.87 31.8 84.74 31.58C84.8 31.55 84.85 31.53 84.9 31.5V31.42C85.21 31.51 86.08 31.9 85.65 32.34M85.05 28.64V28.56H85.2C85.17 28.61 85.15 28.67 85.12 28.72V28.64H85.04H85.05ZM79.25 43.78C80.28 44.13 83.8 44.23 83.01 46.07C82.35 46.07 80.79 45.26 80.61 46.34C80.49 47.06 80.86 47.24 80.26 47.79C79.47 47.79 79.36 47.24 78.99 46.71C78.13 45.48 77.3 44.86 79.24 43.79M75.48 52.38C75.48 52.38 75.43 52.32 75.4 52.29H75.48C75.48 51.8 76.4 51.67 76.74 51.72C77 51.31 77.26 50.91 77.53 50.5C79.77 51.2 76.86 54.1 75.49 52.38M73.85 46.65C74.4 46.72 74.81 46.84 75.18 47.22C74.97 47.58 74.77 47.93 74.55 48.3C73.7 49.08 72.73 47.38 73.85 46.65ZM74.09 27.76C73.93 27.68 73.77 27.6 73.61 27.51H73.53C73.55 27.3 73.58 27.08 73.61 26.86C73.8 26.78 73.97 26.7 74.16 26.62C74.56 27.03 74.34 27.36 74.09 27.76ZM76.26 24.2C76.54 25.34 75.17 24.79 74.71 24.82C74.66 24.82 74.61 24.83 74.57 24.83C73.58 25.51 72.65 24.41 73.62 23.59C74.27 23.68 76.09 23.46 76.27 24.2M81.06 21.22C82.04 21.66 81.3 22.92 80.46 22.5C79.49 22.02 80.64 21.57 81.06 21.22ZM82.47 17.54C82.47 17.83 80.28 18.16 81.06 16.81C81.74 16.88 82.2 16.96 82.55 17.54H82.47ZM81.85 23.68C82.11 23.78 82.84 24.32 82.35 24.63C81.83 24.96 81.43 24.05 81.85 23.68ZM79.49 27.36C79.62 27.22 79.75 27.09 79.88 26.95V26.87C80.09 27.01 80.3 27.14 80.51 27.28C80.41 27.39 80.3 27.5 80.2 27.61C79.99 27.52 79.78 27.44 79.57 27.36H79.49ZM78.79 34.97V34.89C79.19 35.06 79.58 35.22 79.96 35.38V35.55C79.19 35.55 78.64 36.81 78.24 35.22C78.43 35.14 78.61 35.06 78.79 34.98M78.87 32.11C79.85 32.63 78.64 33.64 78.07 33.16C77.52 32.7 78.64 32.23 78.87 32.11ZM76.52 34.89V34.81C76.67 35 76.83 35.19 76.99 35.38C77.02 35.41 77.04 35.44 77.07 35.46C76.76 35.46 75.92 35.4 76.52 34.89ZM77.85 31.54V31.62C77.74 31.73 77.64 31.84 77.54 31.95C77.15 31.82 76.75 31.68 76.36 31.54V31.29C76.47 31.24 76.57 31.18 76.67 31.13C77.15 31.13 77.61 31.13 77.85 31.54ZM77.22 27.04C77.06 27.12 76.91 27.21 76.75 27.29C76.05 27.29 75.79 26.87 75.97 26.23C76.65 26.3 77.05 26.34 77.22 27.04ZM78.94 24.18V24.35C78.86 24.38 78.78 24.41 78.71 24.43C78.65 24.68 78.61 24.92 78.55 25.16C78.4 25.14 78.24 25.11 78.09 25.08V25.16C78.03 25.22 77.98 25.27 77.93 25.33C77.91 25.36 77.88 25.39 77.86 25.41V25.66H77.23C76.55 25.66 77.67 24 77.86 23.85C78.2 23.94 78.53 24.02 78.88 24.1V24.18H78.96H78.94ZM74.96 43.57C75.5 43.9 77.6 44.34 76.73 45.35C75.71 46.53 73.11 44.59 74.96 43.57ZM73.94 35.14C74.2 35.23 75.02 35.49 74.78 35.93C74.4 36.65 71.87 37.58 72.22 35.46C72.8 35.35 73.37 35.24 73.94 35.13M75.74 40.45C75.74 39.85 76.99 39.5 77.38 39.39C77.8 39.71 78.04 40.04 78 40.61V40.69C76.98 40.69 76.57 41.18 75.73 40.45M79.72 29.74V29.66H79.64C80.27 29.29 80.89 28.9 81.52 28.52C82.29 28.71 82.66 29.01 82.85 29.82C82.75 29.9 82.65 29.99 82.54 30.07C81.48 30.07 80.63 29.86 79.72 29.74ZM81.33 40.77C80.18 41.25 79.99 40.09 80.89 39.56V39.48C81.4 39.69 82.21 40.4 81.33 40.77ZM81.58 36.85C80.83 37.26 80.69 35.95 80.82 35.47C81.33 35.57 82.49 36.34 81.58 36.85ZM80.5 17.8C80.58 17.88 80.66 17.96 80.74 18.04C80.61 18.18 80.48 18.31 80.34 18.45C80.13 18.4 79.93 18.34 79.72 18.29V18.37H79.56C79.56 18.83 78.98 19.11 78.7 19.35C78.25 19.25 77.81 19.15 77.38 19.07C77.04 19.09 74.84 20.24 74.78 19.26C74.7 17.64 78.3 18.05 79.25 18.21C79.67 18.08 80.08 17.94 80.5 17.8ZM72.12 21.39V21.31C72.26 20.98 72.38 20.66 72.52 20.33C72.92 20.58 73.03 20.83 73.14 21.31C72.81 21.34 72.47 21.36 72.12 21.39ZM72.72 28.53C74.11 28.86 75.86 28.33 76.9 29.42C76.74 29.61 76.59 29.79 76.43 29.99H76.27C75.98 29.95 75.7 29.93 75.41 29.89C73.88 29.18 68.84 31.49 69.29 29.06C69.42 28.55 69.56 28.04 69.69 27.52V27.44C71.1 27.49 71.58 28.25 72.71 28.52M67.49 38.48C67.6 38.34 67.7 38.21 67.8 38.07C68.01 38.21 68.22 38.34 68.44 38.48C68.36 38.62 68.28 38.75 68.2 38.89C67.97 38.75 67.74 38.62 67.49 38.48ZM66.94 44.78C67.64 45.23 67.62 45.86 67.65 46.73C67.54 46.79 67.44 46.85 67.34 46.9C66.22 46.9 65.42 47.22 64.6 47.8C64.52 47.75 64.45 47.69 64.37 47.63C64.35 47.39 64.33 47.14 64.31 46.9C64.41 46.11 66.27 45.35 66.95 44.77M62.72 14.25C62.57 14.39 62.41 14.52 62.26 14.66C62.13 14.61 62 14.55 61.86 14.5C61.97 14.39 62.07 14.28 62.17 14.17C62.3 14.2 62.43 14.22 62.57 14.25H62.72ZM60.77 10.82V10.74C61.68 11.12 63.44 10.96 63.74 12.05C63.09 12.05 58.91 12.47 60.77 10.82ZM63.74 20.8C63.41 20.8 63.13 20.5 62.96 20.23C63.12 20.15 63.27 20.07 63.43 19.98C63.69 20.07 63.95 20.15 64.21 20.23C64.05 20.42 63.9 20.61 63.74 20.8ZM65.39 17.37H66.25C66.25 17.99 66.1 18.16 65.63 18.43C65.63 18.01 65.22 17.92 65.39 17.37ZM65.47 23.09C66.56 23.09 67.77 23.61 66.65 24.56C65.37 24.56 64.88 24.51 64.93 23.09C64.48 23.09 64 22.45 63.91 22.03C64.17 21.98 64.43 21.92 64.69 21.86C65.53 21.89 65.47 22.29 65.47 23.09ZM57.87 10.82C57.62 10.82 58.32 10.08 58.42 10C58.66 10.08 58.9 10.16 59.13 10.25C59.36 10.25 58.57 10.93 57.87 10.82ZM57.96 12.7C57.75 12.7 58.27 11.54 58.34 11.39C59.15 11.55 59.49 11.89 59.44 12.78C58.94 12.75 58.45 12.72 57.96 12.7ZM58.9 20.8V20.72C58.95 20.53 59 20.34 59.06 20.15V20.07C59.22 20.37 59.36 20.69 58.9 20.8ZM58.19 14.5C58.4 14.28 58.61 14.06 58.82 13.84C59.13 13.89 60.79 14.79 59.99 15.15C59.97 15.12 59.94 15.09 59.92 15.07V15.15C59.18 15.15 58.76 14.84 58.19 14.5ZM55.68 17.44C55.13 17.44 54.4 16.96 54.9 16.38C55.69 16.45 56.28 16.68 55.68 17.44ZM56.08 15.32C55.04 15.32 55.39 14.06 55.99 13.76C57.48 13.91 56.77 14.7 56.08 15.32ZM56.78 11.47C56.12 11.47 55.52 11.47 55.37 10.74C55.94 10.74 56.46 10.73 56.85 11.07C56.83 11.2 56.8 11.34 56.77 11.47M59.75 41.74C60.81 41.84 61.87 42.5 60.69 43.29C59.79 43.29 58.79 42.47 59.75 41.74ZM58.73 31.67C59.13 31.71 59.44 31.82 59.52 32.25H59.45C59.45 32.34 58.44 32.26 58.74 31.67M57.26 46.56V46.48C58.26 46.94 58.34 48.08 58.74 49.01C58.64 49.12 58.54 49.23 58.43 49.34C57.47 49.34 56.57 47.28 57.26 46.56ZM56.55 30.94C56.74 30.97 56.92 30.99 57.1 31.02V31.59H57.03V31.67H56.8C56.73 31.43 56.65 31.18 56.56 30.94M57.35 43.86C57.14 43.89 56.93 43.91 56.73 43.95C55.83 43.95 55.13 43.26 55.55 42.39C56.59 42.46 59.1 42.65 57.35 43.86ZM58.05 54.98C58.18 55.06 58.31 55.15 58.44 55.23C58.39 55.37 58.34 55.51 58.29 55.64C57.9 55.64 57.91 55.19 58.05 54.98ZM55.87 55.06C55.92 55.11 55.97 55.17 56.02 55.22H55.94V55.31C55.92 55.22 55.89 55.15 55.86 55.06M54.21 56.05C54.37 55.83 54.53 55.6 54.68 55.39H55.39V55.48C55.42 55.7 55.44 55.91 55.47 56.13H54.3V56.06H54.22L54.21 56.05ZM56.47 74.69C55.38 74.96 55.74 73.31 56.18 72.89C56.67 73.24 57.48 74.44 56.47 74.69ZM58.36 72.65C57.52 72.65 56.91 71.9 55.94 72.08C53.82 72.08 54.89 67.96 56.73 68.96C56.8 68.91 56.88 68.86 56.96 68.8C57.36 68.8 57.24 67.63 56.96 67.4C55.5 67.4 54.13 65.15 56.33 64.55C58.39 64.97 58.04 67.24 58.76 68.83C59.27 69.95 60 70.08 60.08 71.51C59.51 71.89 58.94 72.27 58.36 72.65ZM58.6 77.39C58.57 77.72 58.55 78.05 58.52 78.37H58.43C58.12 78.4 57.81 78.42 57.5 78.45C57.5 77.89 57.59 77.51 57.98 77.15H58.29C58.39 77.23 58.49 77.31 58.61 77.39M57.82 74.44V74.36C58.99 74.93 59.36 75.64 58.75 76.9C57.75 76.9 57.14 75.15 57.82 74.44ZM62.75 36.98C62.7 37.17 62.65 37.36 62.6 37.55C62.28 37.55 62.03 37.25 61.89 36.98H61.97C62.15 36.92 62.33 36.87 62.52 36.81C62.6 36.87 62.68 36.92 62.75 36.98ZM62.44 28.88C62.28 28.85 62.13 28.82 61.97 28.8C61.94 28.63 61.91 28.47 61.89 28.3C62 28.25 62.1 28.19 62.2 28.14C62.41 28.19 62.62 28.25 62.83 28.3V28.47C62.7 28.6 62.57 28.74 62.44 28.88ZM62.2 25.2C62.2 25.2 62.15 25.25 62.12 25.28H61.96C61.8 25.29 61.64 25.3 61.49 25.32C59.88 25.17 59.17 25.02 57.89 26.1C57.19 26.1 56.84 25.39 56.43 24.92C56.03 24.48 55.08 23.39 56.14 23.05C57.23 22.69 58.37 23.88 59.33 23.6C59.86 23.43 60.21 22.44 60.48 22.01C60.61 21.96 60.74 21.9 60.87 21.84C61.96 21.94 63.07 21.68 63.07 23.07C63.04 23.13 63.01 23.18 62.99 23.23C63.54 23.23 64.14 23.85 64.4 24.3C63.68 24.6 62.94 24.9 62.21 25.2M63.47 26.26C63.47 26.26 63.51 26.21 63.55 26.18C63.57 26.15 63.6 26.12 63.63 26.1V26.01C63.73 26.04 63.83 26.06 63.94 26.1C63.81 26.18 63.68 26.26 63.55 26.34V26.26H63.47ZM68.78 60.37C68.7 61.27 67.68 60.49 68.01 59.8V59.72C68.22 59.75 68.42 59.78 68.63 59.8C68.67 60 68.73 60.18 68.77 60.37M69.64 57.27C69.43 57.44 69.22 57.6 69.02 57.76C69.02 57.76 68.72 57.08 68.86 56.62C69.09 56.73 69.33 56.84 69.56 56.95C69.59 57.06 69.61 57.16 69.63 57.28M71.52 55.81V56.06C70.92 56.06 70.37 56.15 70.35 55.4C70.8 55.45 71.22 55.52 71.52 55.81ZM70.21 52.51C69.94 52.64 69.66 52.75 69.39 52.87C68.7 52.79 68.62 52.08 68.47 51.49C68.24 51.02 68.02 50.54 67.8 50.07C67.69 49.14 68.43 47.05 69.09 46.49V46.41C69.94 46.67 70.43 47.55 71.13 48.04C71.18 48.21 71.23 48.37 71.28 48.53C71.42 48.62 71.54 48.69 71.68 48.78C71.7 48.81 71.73 48.83 71.75 48.86C71.31 49.32 70.86 49.78 70.42 50.26C70.38 50.33 70.34 50.4 70.29 50.47C70.21 51.38 71.38 51.9 70.21 52.52M71.05 42.48C70.88 42.48 71.7 41.74 71.83 41.66C72.6 41.74 72.99 41.83 73.24 42.57C73.35 42.54 73.45 42.52 73.56 42.48V42.65C73.56 42.65 73.33 44.28 72.93 44.61C72.93 45.17 72.69 45.54 72.38 45.92H71.99C71.99 45.23 71.8 44.65 72.3 44.12V43.81C72.14 43.19 71.46 42.92 71.04 42.48M75.5 63.17V64.08C74.88 64.08 74.9 63.34 75.19 63.01C75.29 63.08 75.4 63.13 75.5 63.17ZM74.56 59.41C74.67 59.33 74.77 59.25 74.87 59.16V59.08H75.97C75.97 60.47 75.14 60.57 74.56 59.41ZM82.08 62.19C82.08 62.95 81.26 62.99 81.21 62.27C81.32 62.22 81.42 62.17 81.52 62.11C81.71 62.13 81.89 62.16 82.07 62.19M81.52 60.47C79.44 60.47 79.41 59.53 78.71 57.93C79.16 57.66 79.6 57.39 80.03 57.11C80.33 57.24 82.99 58.79 83.03 58.85C83.72 59.9 82.19 60.34 81.52 60.46M90.45 59.4C90.45 59.4 90.34 59.47 90.28 59.51C89.72 60.21 88.28 59.54 89.27 58.92C89.7 59.03 90.27 59.03 90.45 59.41M90.29 56.96C90.01 56.57 89.72 56.16 89.44 55.76C89.13 55.58 88.82 55.39 88.5 55.19C88 54.67 89.03 54.02 89.35 53.84C90.05 54.04 91.52 54.6 91.85 55.32C91.72 55.37 91.59 55.43 91.46 55.48C91.06 55.97 90.67 56.46 90.29 56.95M92.01 48.93H91.46C90.96 48.8 90.47 48.66 89.97 48.52C89.97 47.83 89.88 47.19 90.36 46.72V46.64C91.3 46.94 91.87 47.95 92 48.93M94.58 41.33C95.03 41.43 96.41 42.27 95.55 42.86C94.66 43.45 93.26 42.1 94.58 41.33ZM96.15 63.16C96.02 63.19 95.88 63.21 95.76 63.25C95.6 63.14 95.44 63.03 95.29 62.92C95.27 62.87 95.24 62.81 95.21 62.76C95.29 62.65 95.36 62.54 95.44 62.43C95.68 62.67 95.91 62.91 96.15 63.16ZM95.84 59.73C96.06 59.89 96.44 60.48 95.97 60.62C95.44 60.78 95.57 60.02 95.84 59.81V59.73ZM96.55 64.8C96.75 65.02 96.96 65.24 97.17 65.46C97.15 65.52 97.12 65.57 97.1 65.63C97.04 65.65 96.99 65.67 96.94 65.71C96.6 65.71 96.35 65.24 96.23 64.97C96.34 64.91 96.44 64.86 96.55 64.81M97.02 81.25C97.62 81.71 97.46 81.93 97.1 82.48H96.87C96.68 82.32 96.5 82.16 96.32 81.99H96.24C96.5 81.74 96.76 81.5 97.03 81.25M98.2 79.86C98.26 79.94 98.3 80.02 98.35 80.11H98.2C98.18 80.06 98.15 80 98.12 79.95C98.15 79.93 98.18 79.89 98.2 79.87M98.69 85.52C98.84 85.77 99.08 86.57 98.49 86.44C97.93 86.33 98.36 85.73 98.63 85.54C98.58 85.56 98.53 85.57 98.45 85.58C98.43 85.31 98.39 85.04 98.37 84.76C98.54 85.09 99.07 85.36 98.69 85.52ZM17.53 48.74V48.17C17.74 48.23 17.95 48.28 18.16 48.33C17.95 48.48 17.74 48.61 17.53 48.74ZM17.46 60.35C17.46 59.98 17.66 59.75 17.92 59.54C17.98 59.84 18.03 60.14 18.08 60.43H17.92V60.51C17.76 60.46 17.61 60.41 17.46 60.34M17.85 74.17C17.54 74.12 17.22 74.06 16.91 74C16.99 73.82 17.07 73.63 17.14 73.44V73.35C17.49 73.49 17.82 73.63 18.16 73.76C18.05 73.9 17.95 74.04 17.85 74.17ZM16.73 65.19C15.84 65.64 15.3 64.49 16.13 63.95C16.39 64.09 17.36 64.87 16.73 65.19ZM15.59 69.92C15.64 69.79 15.69 69.65 15.74 69.51C15.93 69.64 16.1 69.78 16.29 69.92H15.59ZM13.94 48.32C14.05 48.08 14.15 47.84 14.26 47.59C14.36 47.65 14.46 47.7 14.57 47.75H14.65C14.65 48.63 16.57 49.36 15.44 50.37C14.05 51.62 13.51 49.32 13.94 48.32ZM13.55 57.73C13.71 57.78 13.86 57.84 14.02 57.9C14.09 58.44 14.18 58.99 14.26 59.53C13.24 59.53 12.68 58.42 13.55 57.73ZM14.1 61.09C14.1 61.09 14.05 61.04 14.03 61H13.72C13.7 60.89 13.66 60.78 13.64 60.67C13.78 60.7 13.9 60.72 14.04 60.75C14.06 60.81 14.09 60.86 14.11 60.91V61.08L14.1 61.09ZM13.08 77.28C13.06 76.98 13.03 76.68 13 76.38C13.16 76.41 13.31 76.43 13.47 76.45C13.57 76.54 13.67 76.63 13.79 76.7C13.55 76.9 13.32 77.08 13.08 77.28ZM12.38 74.66V74.58C12.58 74.66 12.79 74.74 13 74.83C12.84 75.11 12.69 75.37 12.53 75.65C12.08 75.65 12.24 74.88 12.38 74.67M11.36 71.65C11.39 71.57 11.41 71.48 11.44 71.4C11.5 71.37 11.55 71.35 11.6 71.32V71.24C11.86 71.29 12.13 71.35 12.39 71.4V71.57C12.04 71.59 11.71 71.62 11.37 71.65M8.34 64.21C7.74 63.97 8.37 63.37 8.71 63.22C9.37 63.58 9.16 64.54 8.34 64.21ZM6.12 60.44C5.91 60.44 6.66 59.76 6.76 59.71C7.66 59.98 6.98 60.75 6.12 60.44ZM5.03 65.27H5.1C5.1 65.27 5.05 65.33 5.03 65.36C4.85 65.18 4.67 64.99 4.48 64.81C4.07 64.19 4.93 63.64 5.35 63.39C6.5 63.84 5.6 64.68 5.04 65.27M3.47 62.82C3.53 62.62 3.58 62.43 3.63 62.24C3.88 62.46 3.93 62.63 3.94 62.97C3.78 62.92 3.63 62.86 3.46 62.81M4.56 57.5C4.64 57.41 4.72 57.33 4.8 57.25C5.21 57.41 5.39 57.53 5.5 57.98C5.45 58.01 5.39 58.04 5.34 58.07C5.08 57.89 4.81 57.69 4.55 57.51M16.92 37.63C16.92 37.63 16.87 37.68 16.84 37.71C16.68 37.79 16.5 37.88 16.33 37.96C14.18 39.06 13.66 37.04 15.28 35.67C16.51 36.15 18.97 36.14 16.92 37.63ZM16.76 40.24C16.76 40.24 16.71 40.3 16.68 40.32C16.55 40.16 16.42 40 16.28 39.84C16.42 39.67 16.54 39.51 16.68 39.35V39.27C17.12 39.55 17.11 39.87 16.76 40.25M96.68 25.28C96.82 25.31 96.94 25.33 97.08 25.36H97.23C97.05 25.49 96.86 25.63 96.68 25.77V25.28ZM98.09 19.96C98.58 20.03 99.78 20.51 98.99 21.19C98.12 21.93 97.46 20.71 98.09 19.96ZM99.34 24.3C99.67 24.42 101.01 24.62 100.89 25.17C100.78 25.65 99.91 25.55 99.58 25.77C99.27 25.74 98.95 25.72 98.64 25.69C98.61 25.33 98.58 24.98 98.55 24.62C98.82 24.51 99.08 24.4 99.33 24.3M98.86 29.28C98.86 29.28 98.82 29.23 98.78 29.2C98.92 29.12 99.04 29.04 99.17 28.96C99.4 29.04 99.63 29.12 99.87 29.2C99.87 29.77 99.04 29.41 98.85 29.28M100.34 17.5C101.45 17.84 100.64 18.57 99.79 18.57C99.34 18.57 100.26 17.56 100.34 17.5ZM107.62 39.42C107.73 39.53 107.83 39.63 107.93 39.75C107.96 39.77 107.99 39.81 108.02 39.83C107.86 39.99 107.7 40.15 107.55 40.31H107.24C107.24 39.91 107.37 39.68 107.63 39.42M111.24 45.96H111.15V45.88C111.36 45.93 111.58 45.99 111.78 46.04C111.81 46.04 111.84 46.03 111.87 46.03C112.88 46.72 112.91 47.58 112.01 48.33C111.59 48.21 111.17 48.06 110.76 47.93C110.53 47.93 111.09 46.16 111.23 45.97M112.16 46.05C112.16 46.05 112.11 46 112.08 45.97C112.11 46 112.14 46.03 112.16 46.05ZM114.43 62.74C114.81 62.98 114.94 63.23 114.89 63.72C114.58 63.56 114.26 63.39 113.95 63.23C114.1 63.07 114.26 62.91 114.42 62.74M118.77 66.57C118.69 66.6 118.61 66.62 118.54 66.65C118.52 66.68 118.49 66.7 118.46 66.73C118.46 66.87 117.82 65.98 117.75 65.75C117.73 65.71 117.73 65.67 117.71 65.63C117.01 65 116.48 64.97 115.71 65.51C115.1 65.51 114.24 65.59 113.8 65.2C113.24 64.69 113.8 63.83 114.47 63.87C115.58 63.87 116.46 63.84 117.51 63.71C117.46 63.74 117.41 63.76 117.36 63.79C117.56 63.71 117.76 63.65 117.97 63.57C119.93 61.81 114.45 60.91 113.91 60.68V60.6H114.22V60.52C113.3 60.52 112.64 60.54 112.03 59.94C112 59.88 111.99 59.83 111.96 59.76C110.49 57.9 111.81 57.35 111.31 56.2C111.29 56.15 107.16 52.81 106.71 52.43C106.71 52.38 106.69 52.35 106.69 52.32C107.05 51.43 107.57 50.83 108.59 50.88V50.63C108.59 50.63 108.29 50.05 108.04 49.98C106.8 49.98 106.26 48.39 107.53 47.99C109.06 47.5 109.28 49.02 110.34 49.49C111.21 49.87 112.16 49.81 112.97 50.23C113.3 50.23 113.45 49.65 113.95 49.74C114.99 49.92 114.93 51.13 116.65 51.13C116.68 51.05 116.71 50.96 116.73 50.89V50.8C115.88 50.8 115.82 48.95 115.71 48.35C115.45 48.07 115.2 47.81 114.94 47.53V47.61C114.97 47.7 115 47.78 115.03 47.87C115.12 49.13 113.6 48.54 113.13 48.02C113.11 47.99 113.08 47.96 113.06 47.93C113.08 47.9 113.11 47.88 113.13 47.85H113.83C114.15 47.79 114.47 47.74 114.77 47.69H114.93V47.61C114.56 47.36 114.19 47.12 113.82 46.87C113.82 46.45 113.06 45.37 112.88 44.9C112.86 44.93 112.83 44.96 112.81 44.98C112.31 45.01 111.82 45.04 111.32 45.06C111.14 44.95 110.96 44.84 110.77 44.73V44.81H110.7C110.7 44.81 110.65 44.87 110.62 44.89V44.81H110.7C110.65 44.79 110.59 44.76 110.54 44.73C110.46 44.78 110.38 44.82 110.3 44.87C109.35 45.07 107.82 43.36 108.26 42.4C108.51 41.85 109.21 41.83 109.6 41.45C109.85 41.16 110.08 40.87 110.32 40.59C111.7 39.42 111.69 41.7 112.41 41.91C113.21 42.14 114.36 41.84 115.07 41.78H115.14V41.61C114.47 41.61 113.14 40.45 112.87 39.82H112.95C113.63 39.76 114.31 39.71 114.99 39.65V36.96C114.86 36.93 114.73 36.91 114.59 36.88C114.59 36.68 114.08 36.59 113.89 36.63C113.87 36.6 113.84 36.57 113.81 36.55C113.91 36.55 111.06 37.25 111.47 35.57C112.04 35.46 112.61 35.35 113.19 35.24V35.08C113.14 35.02 113.08 34.96 113.03 34.91C111.88 34.91 111.07 34.85 111.15 33.52C111.07 33.48 110.99 33.44 110.92 33.41C110.24 33.32 105.87 33.12 105.7 33.01C105.61 32.69 105.52 32.38 105.44 32.05C105.39 32.02 105.33 32 105.28 31.97H105.2C104.81 32.08 104.42 32.19 104.03 32.3C103.48 32.58 102.92 32.85 102.37 33.13C100.84 33.67 99.41 33.13 98.09 32.63C97.69 32.79 97.31 32.95 96.91 33.12C96.94 33.15 96.97 33.17 96.99 33.2V33.28C94.81 33.28 94.21 31.75 92.53 30.99V31.07C92.42 31.1 92.32 31.12 92.22 31.15C92.14 31.18 92.06 31.2 91.99 31.23C91.83 31.26 91.68 31.28 91.51 31.32C89.29 31.32 92.69 28.29 95.2 30.74H95.28C95.28 30.74 95.33 30.79 95.35 30.82V30.65C95.41 30.63 95.46 30.6 95.51 30.57C95.45 30.4 95.38 30.23 95.31 30.06C95.28 28.57 98.09 30.06 99.03 29.92C99.13 29.92 99.21 29.9 99.29 29.89C100.63 29.41 101.56 30.67 102.64 30.98V30.9H102.56C102.58 30.68 102.62 30.46 102.64 30.24C103.16 30.24 103.38 29.9 103.89 30.33C103.97 30.27 104.05 30.21 104.12 30.16C105.53 28.28 100.41 26.39 103.34 24.03C103.32 23.87 103.3 23.71 103.26 23.54C103.32 23.51 103.37 23.49 103.42 23.46V23.3C102.67 23.3 102.31 23.12 102.01 22.48C101.91 22.72 101.8 22.97 101.69 23.22C100.3 23.22 98.78 22.7 99.34 20.92C99.04 20.92 99.43 19.77 99.51 19.67C100.54 18.17 103.06 20.17 102.09 21.74C102.11 21.77 102.14 21.8 102.17 21.82V22.07H102.25C102.25 21.44 103.29 20.67 103.74 20.44H103.81C104.18 20.82 104.55 21.2 104.91 21.58C104.91 21.12 104.61 20.48 104.2 20.27C103.84 20.27 103.46 19.74 103.35 19.42C103.22 18.57 103.08 17.73 102.95 16.89C102.26 15.85 100.58 15.94 99.65 15.27C98.79 14.65 98.56 13.73 97.86 13.07V13.23C97.73 13.4 97.6 13.56 97.46 13.72C97.18 13.7 96.89 13.67 96.6 13.64V13.56C96.6 13.42 96.59 13.29 96.58 13.16C96.77 12.06 98.51 11.89 98.24 10.62C98.22 10.57 98.19 10.5 98.16 10.45C97.63 10.18 97.1 9.91 96.56 9.64C95.62 9.45 95.09 10.67 94.25 9.47C93.8 9.74 93.36 10.01 92.91 10.29C92.48 10.26 92.02 10.23 91.58 10.21V10.13C91.48 9.77 91.38 9.42 91.26 9.06C90.98 8.84 90.69 8.62 90.41 8.41C89.78 8.25 89.15 8.08 88.53 7.92V7.84H88.45C88.45 8.37 87.93 8.61 87.58 8.82C87.27 8.66 86.95 8.49 86.64 8.33H86.56C86.56 8.33 86.61 8.27 86.64 8.25C86.59 8.22 86.53 8.2 86.48 8.16C86.14 8.27 85.81 8.38 85.46 8.49V8.57H85.38C85.38 8.57 84.71 8.94 84.44 8.85C84.01 8.73 83.75 8.13 83.59 7.75C83.53 7.86 83.48 7.97 83.43 8.08H83.67V8.49C83.69 8.66 83.72 8.82 83.74 8.98C83.19 9.69 82.65 10.4 82.1 11.11C81.59 10.88 81.08 10.65 80.57 10.43C78.19 9.66 77.53 9.47 77.89 6.71C77.92 6.56 77.92 6.44 77.95 6.29C77.89 6.26 77.84 6.23 77.79 6.2V6.12C77.61 6.09 77.43 6.06 77.24 6.04H77.08C77.01 6.12 76.93 6.2 76.85 6.29V6.37C76.85 6.37 75.36 6.37 74.97 6.21C74.94 5.39 74.91 4.57 74.88 3.76H75.04C75.04 3.46 72.43 3.32 71.98 3.43C70.67 3.43 69.15 2.7 67.91 3.35C67.47 3.84 67.02 4.33 66.58 4.82C66.15 4.82 63.94 4.45 64.29 3.72C64.48 3.3 68.79 2.1 69.26 1.46C69.28 1.44 69.3 1.41 69.32 1.39C69.56 1.39 68.9 0.46 68.54 0.41C68.26 0.57 67.96 0.74 67.67 0.9C67.36 0.93 67.05 0.96 66.73 0.98C66.71 1.01 66.69 1.03 66.66 1.06C66.66 1.06 64.8 1.72 64.31 1.72C63.6 1.58 62.9 1.44 62.19 1.31H61.96C62.01 1.26 62.06 1.2 62.12 1.14C61.22 1.14 60.06 1.22 59.22 0.98C59.22 0.13 57.86 0.02 57.26 0C56.77 0.3 56.27 0.6 55.78 0.9C55.26 0.79 54.73 0.69 54.21 0.57C53.83 0.84 53.43 1.11 53.04 1.39C52.88 1.42 52.73 1.44 52.57 1.47C51.77 1.47 51.17 1.23 50.54 0.9C50.46 0.93 50.39 0.96 50.31 0.98C50.25 1.17 50.2 1.36 50.15 1.55C50.26 1.58 50.38 1.61 50.5 1.65C50.98 1.78 51.47 1.92 51.96 2.05C51.9 2.08 51.85 2.1 51.8 2.13V2.21C53.28 2.21 54.74 2.19 53.84 4.09C53.6 3.98 53.36 3.87 53.13 3.76C53.1 3.7 53.08 3.65 53.05 3.6V3.68C52.52 3.68 51.98 4.24 51.02 4.09C50.97 3.96 50.92 3.81 50.87 3.68C50.81 3.65 50.76 3.61 50.71 3.59C49.99 3.55 47.76 3.17 47.02 2.94C46.76 2.91 46.5 2.89 46.23 2.86H46.15C46.15 2.86 46.1 2.92 46.07 2.94C45.94 2.91 45.81 2.89 45.68 2.86C45.63 2.92 45.58 2.97 45.53 3.03H45.45V3.11C46.31 3.11 48.01 3.26 46.78 4.17C45.29 4.17 43.9 3.5 42.72 4.33C42.43 4.57 42.14 4.82 41.86 5.07V4.99C41.5 5.07 41.13 5.16 40.76 5.24H40.68V5.32H40.6V5.4H40.52V5.48C40.75 5.54 40.99 5.59 41.23 5.65C41.38 5.57 41.54 5.48 41.69 5.4V5.32C42.18 5.32 44.38 5.82 44.44 4.99V4.91C45.45 4.91 45.86 5.73 46.54 6.31V6.22C46.91 6.01 47.27 5.78 47.64 5.56C48.33 5.47 49.03 6.41 49.67 6.55C49.69 6.58 49.72 6.6 49.74 6.63V6.88C49.8 6.83 49.85 6.76 49.9 6.71H49.98C50.05 6.77 50.11 6.84 50.17 6.91C51.45 7.53 52.21 7.89 52.41 9.58H52.33C51.91 9.55 51.5 9.53 51.07 9.51C50.43 9.36 49.61 8.53 49.07 8.61C48.49 8.69 48.67 10.09 47.76 9.93C47.11 9.81 46.99 9 46.49 8.7C45.72 8.61 44.96 8.53 44.2 8.44V8.52H44.27V8.6C44.2 8.55 44.11 8.5 44.04 8.44H43.96C43.85 8.5 43.75 8.55 43.65 8.6H43.56C43.8 8.8 44.04 8.98 44.27 9.18C44.33 9.2 44.38 9.23 44.43 9.26C44.4 9.29 44.37 9.31 44.35 9.34C44.35 10.85 44.22 10.6 43.01 11.22C42.46 11.51 41.97 12.07 41.3 12.1C40.77 12.13 38.27 10.45 37.86 9.98C37.46 9.61 37.04 9.23 36.63 8.85C36.15 8.78 35.97 9.77 35.75 10.07C35.73 10.1 35.7 10.12 35.67 10.16C35.67 9.91 34.06 10.16 33.94 10.4C33.91 10.48 33.86 10.55 33.83 10.64C33.58 11.92 32.54 11.31 31.61 11.6C30.74 11.87 30.41 12.61 29.32 12.36H29.24V12.45C29.24 12.45 29.13 12.5 29.08 12.53V13.34H28.07C28.19 12.97 28.33 12.58 28.46 12.2C28.44 12.15 28.41 12.09 28.39 12.03C28.41 12.01 28.44 11.98 28.46 11.95C28.3 11.93 28.15 11.9 27.99 11.87C27.84 11.93 27.67 11.98 27.52 12.03H27.44C27.47 12.2 27.49 12.36 27.52 12.53C27.17 12.7 26.82 12.87 26.48 13.05C25.29 13.27 24.47 12.47 24.47 14.42C25.62 14.42 27.44 14.06 27.84 15.46C28.37 17.33 26.04 16.97 25.26 16.54C25.26 17.36 23.55 17.15 23.14 16.3C23.01 16.22 22.88 16.13 22.75 16.05C21.99 15.78 21.24 15.51 20.48 15.23C20.36 15.23 19.93 14.11 19.62 13.92V14C19.58 14.05 19.54 14.1 19.51 14.15C19.17 15.67 17.81 15.2 16.72 14.98V14.9H16.25C16.04 15.01 15.84 15.12 15.63 15.23C16.15 15.73 16.67 16.22 17.19 16.71V16.79C17.34 16.76 17.5 16.73 17.66 16.71V16.62C17.66 16.62 17.6 16.57 17.58 16.54V16.46C18.23 16.46 19.07 15.56 19.07 16.95C18.78 17.33 18.5 17.72 18.21 18.09V18.01C18.15 18.04 18.1 18.06 18.05 18.09C17.89 18.21 17.74 18.31 17.58 18.42C17.55 18.56 17.53 18.7 17.5 18.83C18.1 18.94 18.71 19.05 19.31 19.16H19.39C19.39 19.16 19.44 19.21 19.47 19.24C19.46 18.72 19.44 18.19 19.42 17.67C20.15 16.37 22.99 17 22.6 18.66C22.36 18.58 22.13 18.5 21.89 18.41C21.77 18.44 21.63 18.47 21.5 18.5V18.57C21.34 18.51 21.19 18.46 21.03 18.41C20.98 18.52 20.93 18.63 20.88 18.74C20.88 19.73 22.41 19.03 22.76 19.88C22.31 20.21 21.87 20.54 21.43 20.86C21.41 20.89 21.37 20.91 21.35 20.94H21.12C21.01 21.02 20.91 21.11 20.8 21.19H20.64C20.43 21.27 20.22 21.35 20.01 21.44V21.52H19.07V21.44H18.99V21.52H18.91C18.52 21.73 18.13 21.96 17.74 22.17H17.5C17.29 22.31 17.09 22.45 16.88 22.58H16.8C17.27 22.66 17.74 22.74 18.21 22.83V22.91C18.21 22.91 18.15 22.96 18.13 22.99C18.5 23.01 18.86 23.02 19.22 23.05C19.96 22.99 22.33 21.06 22.61 21.63C22.61 22.25 22.6 22.87 22.59 23.49C22.62 23.54 22.64 23.6 22.67 23.65C23.33 23.52 23.98 23.38 24.64 23.25C24.64 24.5 23.57 26.73 22.83 27.67C22.83 28.41 22.42 28.51 22.05 28.9C22.01 28.79 21.96 28.67 21.91 28.57C21.71 27.35 21.29 26.72 20.26 26.12V26.2C20.18 26.28 20.1 26.36 20.02 26.44C20.07 26.62 20.11 26.81 20.15 26.99C20.3 27.36 20.44 27.72 20.6 28.08C20.58 28.12 20.56 28.15 20.54 28.18C20.12 28.81 19.18 28.58 18.61 28.94C18.27 29.41 17.93 29.87 17.59 30.34C16.74 30.98 16.28 30.14 16.2 29.32C16.2 28.09 13.83 26.93 12.91 27.51C12.98 27.57 13.07 27.62 13.15 27.68C13.07 27.71 12.99 27.73 12.91 27.76V27.84C13.46 27.84 13.81 28.53 13.61 28.99H13.53C12.81 28.99 12.53 29.27 11.81 28.99C11.83 29.04 11.86 29.1 11.89 29.15C11.76 29.18 11.63 29.2 11.5 29.23C11.58 29.31 11.65 29.4 11.73 29.48C11.85 29.54 11.97 29.6 12.09 29.66C12.09 29.66 12.17 29.7 12.21 29.72C12.23 29.75 12.26 29.77 12.29 29.81C12.35 29.75 12.4 29.69 12.45 29.64H12.61V29.72C12.61 29.72 12.66 29.77 12.69 29.81H12.76C12.69 29.83 12.61 29.86 12.53 29.89V29.97C12.64 29.94 12.74 29.92 12.84 29.89H12.92C12.92 31.15 13.01 31.2 11.74 31.61C11.36 31.48 10.97 31.33 10.57 31.2C10.41 31.26 10.26 31.31 10.1 31.37C10.05 31.44 10.01 31.52 9.97 31.6C9.29 33.23 7.77 32.25 6.74 33.42C6.76 33.46 6.78 33.47 6.82 33.5C6.79 33.53 6.76 33.55 6.74 33.58C6.65 33.61 6.58 33.63 6.5 33.67H6.34C5.9 33.97 5.45 34.27 5.01 34.57C4.95 34.6 4.9 34.62 4.85 34.65H4.93C4.93 34.65 4.88 34.71 4.85 34.73V34.81H4.79C4.75 34.89 4.72 34.97 4.69 35.06H4.61V34.81H4.53V35.06C4.53 35.32 5.08 35.24 5.23 35.14H5.87C5.97 35.06 6.07 34.97 6.18 34.89C6.18 33.02 10.67 34.86 8.52 37.1C8.06 37.1 7.58 37.02 7.2 37.26C7.04 37.54 6.88 37.81 6.73 38.08C7.16 38.08 6.96 39.23 6.96 39.47V39.55H7.04C7.2 39.58 7.35 39.61 7.51 39.63C7.51 38.57 9.39 39.78 9.63 40.05H9.7C9.7 40.05 9.75 40.1 9.78 40.12C9.89 40.01 9.99 39.91 10.09 39.8C10.96 39.36 11.82 38.93 12.68 38.49C12.68 38.8 13.58 40 13.77 40.37C14.2 40.25 14.62 40.13 15.05 40.01C16.15 40.32 14.56 42.18 14.56 42.82H14.64C14.64 42.82 14.69 42.87 14.72 42.91C14.72 42.63 15.49 42.31 15.74 42.33C16.08 42.28 16.42 42.22 16.76 42.17V41.92C17.05 41.87 17.33 41.81 17.62 41.76V41.6C17.62 41.6 17.57 41.54 17.54 41.51C17.6 41.54 17.65 41.57 17.7 41.6C17.81 41.52 17.91 41.44 18.03 41.36C19.21 40.05 20.92 41.03 21.7 42.25V42.5H21.15C21.05 42.56 20.96 42.62 20.87 42.68C19.85 43.18 19.44 44.45 18.56 44.97C17.93 45.12 17.3 45.29 16.68 45.44V45.52C15.97 45.6 15.27 45.68 14.56 45.76V45.84H14.48C14.35 46.17 14.22 46.5 14.09 46.83C14.04 46.86 13.99 46.89 13.93 46.91C13.82 46.85 13.72 46.8 13.62 46.74H13.47C13.47 47.4 12.15 47.03 11.9 46.74H11.82V46.82H11.73C11.42 47.12 11.11 47.42 10.79 47.72C10.77 47.75 10.75 47.77 10.71 47.8C10.6 47.83 10.5 47.85 10.4 47.88C10.35 47.91 10.29 47.93 10.24 47.96C10 47.85 9.76 47.74 9.52 47.62C8.94 47.5 6.82 47.35 6.91 48.33C7.27 48.94 7.61 49.55 7.97 50.17C7.97 50.17 9.12 50.69 9.39 51.55C9.1 51.77 8.81 51.99 8.52 52.21H8.37V52.37C8.26 52.43 8.16 52.49 8.06 52.53V52.78C7.98 52.74 7.9 52.67 7.83 52.62V52.7C7.62 52.84 7.41 52.97 7.21 53.11V53.19C6.89 53.03 6.58 52.87 6.27 52.7C6.21 52.68 6.16 52.65 6.11 52.62C5.93 52.52 5.75 52.4 5.56 52.29C5.51 52.26 5.46 52.24 5.4 52.21C5.17 52.4 4.93 52.59 4.7 52.77V52.86C5.04 53.18 5.38 53.51 5.72 53.84C5.2 54.38 4.67 54.92 4.16 55.47H4C4 55.26 3.14 55 3.14 54.33C3.11 54.3 3.08 54.28 3.06 54.25C3.01 54.28 2.96 54.3 2.9 54.33V54.16H2.82V54.25C2.46 54.33 2.09 54.41 1.73 54.49V54.58H1.57C1.52 54.55 1.46 54.52 1.42 54.49C1.4 54.58 1.37 54.66 1.34 54.74V54.91C1.03 55.34 0.71 55.78 0.4 56.21C0.35 56.16 0.3 56.1 0.24 56.05C0.21 56.18 0.19 56.32 0.16 56.46V56.54H0.63V56.78C0.97 56.59 1.3 56.4 1.65 56.2C1.71 56.22 1.77 56.25 1.83 56.27C2.43 56.82 2.21 57.62 2.58 58.24C2.74 58.11 2.89 57.97 3.05 57.83V57.67H3.21C3.82 58.1 4.42 58.52 5.03 58.94C5.64 59.95 2.05 60.61 1.33 61.18H1.17C1.17 61.57 0.96 61.97 0.62 62.09C0.41 62.25 0.2 62.41 0 62.57C0.1 63.09 0.2 63.61 0.31 64.13C0.33 64.07 0.36 64.02 0.38 63.96V64.37C0.38 64.37 0.43 64.32 0.46 64.29C0.57 64.35 0.67 64.41 0.77 64.45C0.75 64.37 0.71 64.29 0.69 64.21H0.77V64.13C0.83 64.16 0.87 64.18 0.92 64.21C1.18 64.13 1.44 64.05 1.7 63.96C2.74 63.96 2.16 65.36 1.78 65.68V65.76C1.78 65.76 1.84 65.81 1.86 65.84V65.93H1.78V66.01C1.76 65.96 1.73 65.9 1.7 65.85H1.63C1.55 66.05 1.47 66.24 1.4 66.42C1.69 66.67 1.97 66.92 2.25 67.16H2.33C2.33 67.16 2.39 67.21 2.41 67.24C2.54 67.08 2.66 66.91 2.79 66.75C3.55 66.57 4.31 66.38 5.07 66.2C5.85 65.79 6.16 64.76 6.95 64.3C7.1 64.36 7.26 64.42 7.42 64.46C7.48 64.79 7.53 65.11 7.58 65.44C7.69 65.36 7.79 65.28 7.89 65.2C8.17 65.17 8.46 65.13 8.74 65.09C9.79 65.2 9.44 66.52 9.88 67.18C9.98 67.29 10.07 67.39 10.17 67.5H10.33C10.38 67.31 10.44 67.11 10.49 66.93H10.57C10.65 66.9 10.73 66.86 10.8 66.82C11.31 66.8 13.85 66.69 13.93 67.23C13.82 67.37 13.7 67.5 13.59 67.64C12.01 68.39 10.71 69.24 9.24 70.19V70.11H9.16V70.19C8.95 70.33 8.74 70.47 8.53 70.6C8.53 70.67 8.53 70.72 8.53 70.77C8.16 71.62 7.51 72.01 6.57 72.07V72.16C6.47 72.21 6.36 72.27 6.26 72.32C6.07 72.46 5.9 72.59 5.71 72.73C5.83 72.76 5.97 72.8 6.09 72.83C7.35 72.92 7.94 73.07 8.91 71.99C9.73 71.99 9.83 73.12 9.54 73.62C9.44 73.81 9.33 74.01 9.23 74.2C9.18 74.25 9.13 74.31 9.08 74.36C9.05 74.41 9.02 74.47 8.99 74.52C9.1 74.6 9.2 74.68 9.3 74.77V75.01C9.3 75.01 9.43 75.17 9.56 75.35C9.79 75.65 10.09 76.08 10.24 76.32V76.4H10.32V76.32C10.58 76.32 11.13 75.19 11.72 75.09C12.35 75.09 11.72 76.39 11.57 76.56C11.59 76.59 11.62 76.61 11.64 76.65C11.16 76.65 10.77 77.4 10.16 77.47C9.88 77.77 9.58 78.07 9.29 78.37C9.01 78.69 8.72 79.02 8.43 79.35C8.41 79.51 8.38 79.68 8.35 79.84C8.54 79.84 9.95 81.15 11.16 81.15V81.31H11.71V81.64H11.87V81.48C11.87 81.48 11.92 81.42 11.94 81.4C12 81.44 12.06 81.47 12.12 81.5C12.9 81.61 13.86 77.76 14.61 76.98C14.77 76.94 14.92 76.89 15.09 76.87C17.42 76.57 16.88 79.02 15.79 80.09V80.17C15.47 80.41 15.16 80.66 14.84 80.9V81.23H15.55C15.63 81.15 15.71 81.05 15.79 80.96C17.25 79.12 18.31 81.43 18.45 82.87H18.52C18.52 81.98 19.14 80.42 19.85 79.92C20.11 80.05 20.37 80.19 20.63 80.33C20.58 80.28 20.52 80.23 20.47 80.17H20.78C20.78 79.4 21.41 77.61 22.37 78.58C23.05 79.26 22.52 80.76 22.5 81.64C22.57 81.6 22.64 81.56 22.72 81.52C23.1 81.13 23.48 80.73 23.87 80.35C24.29 80.31 24.72 80.27 25.14 80.23C25.58 79.94 26.02 79.64 26.47 79.35C27.71 79.11 27.57 80.33 27.28 81.07C27.26 81.7 27.22 82.32 27.2 82.96H27.28V83.04C27.9 83.04 27.74 82.04 27.95 81.68C28.65 81.13 29.33 80.56 30.03 80.02C30.64 78.79 29.5 77.3 29.75 76.85C30.21 76.02 31.26 77.32 31.66 77.64C32.15 77.64 34.15 73.72 35.5 76.34C36.78 76.34 43.88 76.67 42.46 78.46C42 78.38 41.53 78.3 41.05 78.22C41 78.19 40.95 78.16 40.89 78.13C40.89 78.61 37.55 78.37 36.82 78.54H36.74C36.65 78.65 36.53 78.76 36.43 78.86C35.7 78.86 35.71 80.34 34.16 79.11H34.08C33.98 79.28 33.87 79.44 33.77 79.61C33.8 79.66 33.82 79.71 33.85 79.77C33.93 80.39 34.01 81.02 34.08 81.65H34.16V81.73H34.24V81.65C35.21 81.65 36.43 79.96 36.9 81.89C36.72 82.44 36.53 82.98 36.35 83.53V83.69C36.78 83.69 37.2 83.87 37.66 83.87C37.65 83.78 37.62 83.71 37.61 83.63C37.66 82.71 37.82 80.73 38.49 80.11C40.53 81.06 40.51 83.71 38.1 83.99C38.18 84.04 38.26 84.1 38.33 84.15C40.18 85.07 42.53 83.26 42.7 86.33C42.81 86.57 42.9 86.82 42.99 87.06C43.23 86.97 43.46 86.9 43.7 86.81C43.68 86.81 43.78 85.45 44.21 85.39C44.81 85.31 44.64 86.34 44.71 86.73C44.76 86.76 44.81 86.78 44.86 86.8C45.76 86.67 46.11 85.74 47.22 85.67C47.22 84.06 46.53 84.21 47.69 82.48C47.91 82.62 48.11 82.75 48.33 82.89C49.15 83.84 48.61 85.44 49.33 85.9C49.93 86.08 50.52 86.26 51.13 86.44C51.29 86.65 51.45 86.86 51.6 87.08C51.27 87.38 50.93 87.68 50.59 87.97V88.05C51.48 88.05 51.67 88.97 51.37 89.61C51.37 90.02 51.37 90.42 51.37 90.85L52.24 94.38C52.66 95.15 53.36 95.31 53.51 96.31C53.55 97 53.59 97.69 53.63 98.38C53.75 98.97 54.19 99.34 54.14 100.07C54.03 101.55 52.73 102.81 53.32 104.52C53.49 104.66 53.65 104.78 53.82 104.92C54.77 104.88 55.75 104.53 56.59 104.53C57.17 104.71 57.75 104.88 58.34 105.05C59.3 104.93 60.27 104.83 61.22 104.7C62.61 104.68 63.77 105.07 65.21 104.89C64.71 103.66 64.21 102.43 63.72 101.19C62.93 98.26 63.08 90.93 65.13 88.77C65.13 88.42 67.1 86.15 67.49 85.83C67.84 85.66 68.17 85.5 68.53 85.34C69.34 84.76 71.91 80.56 73.15 81.86C74.13 82.88 71.93 83.3 71.56 83.69C71.56 83.69 72.85 84.73 72.97 85.32H73.05V85.41C73.36 85.02 73.67 84.64 73.97 84.26C74.49 84 74.93 84.9 75.08 85.25C75.24 85.36 75.39 85.47 75.55 85.58V85.5C75.6 85.19 75.65 84.9 75.7 84.6C77.33 84.6 76.74 84.21 77.82 85.58C77.82 85.98 79.06 86.39 79.21 85.76C79.49 84.59 75.58 83.41 78.52 82.47C78.6 82.25 78.68 82.03 78.76 81.82C78.76 80.79 77.34 80.8 78.68 79.94C78.7 79.89 78.73 79.83 78.76 79.78C78.67 79.73 78.58 79.7 78.49 79.66C76.89 78.65 76.72 80.39 76.1 80.04C76.02 79.95 75.94 79.84 75.87 79.74C75.12 77.46 79.83 77.36 81 77.8C81.12 77.91 81.23 78.02 81.33 78.14C81.35 78.18 81.36 78.22 81.37 78.26C81.3 78.88 81.23 79.48 81.15 80.08C81.27 81.31 82.05 81.92 81.98 83.22H82.06C82.35 83.2 82.63 83.17 82.92 83.14C82.92 83.71 84 83.9 84.4 83.96H84.48V83.79C84.22 83.47 83.96 83.14 83.69 82.81C84.7 82.81 85.48 82.34 85.73 83.71C86.27 83.71 87.04 83.71 87.38 84.11C87.91 84.74 87.15 86.07 87.79 86.48C88.24 86.76 90.51 85.73 91.31 86.22C91.81 85.6 91.38 85.01 92.35 84.6C92.81 84.39 94.13 84.67 95.33 85.05C95.3 85 95.24 84.93 95.24 84.87C95.66 84.96 95.9 85.05 96.08 85.3C96.74 85.55 97.29 85.8 97.52 85.98C97.76 86.4 98.02 86.82 98.26 87.24C98.33 87.27 98.41 87.29 98.49 87.32C98.56 87.31 98.64 87.29 98.71 87.28C99.66 86.77 100.47 87.11 100.84 88.13C101.02 88.05 101.2 87.97 101.39 87.89C101.39 85.9 102.93 87.96 103.19 88.54V88.63H103.35C103.58 88.47 103.81 88.3 104.05 88.13C104.05 87.03 102.32 86.75 104.29 85.92C104.31 85.87 104.33 85.82 104.35 85.76C104.17 84.29 101.38 84.88 102.25 82.66V82.58C101.65 82.58 99.25 82.47 99.25 81.68C99.25 80.47 101.5 81.09 101.86 80.13H102.64C103.03 80.13 103.18 81.41 103.26 81.68H103.35C103.64 81.29 103.92 80.91 104.21 80.53C103.84 80.17 103.48 79.79 103.11 79.43C102.67 79.28 102.24 79.14 101.81 79C101.04 78.57 99.27 77.02 98.41 77.02H98.33C98.15 77.07 97.95 77.11 97.76 77.14C96.75 77.29 94.7 76.56 94.61 75.36C94.51 73.99 95.87 74.09 96.76 74.32C97.87 74.32 98.02 76.03 98.17 76.85H98.26V76.77C98.89 76.77 99.05 72.76 102.48 73.74C103.03 73.84 103.57 73.96 104.12 74.07C104.21 74.32 104.28 74.56 104.36 74.81C104.47 74.83 104.57 74.86 104.68 74.89V74.97H104.52C104.9 75.32 105.3 75.67 105.69 76.03C106.29 75.84 106.89 75.64 107.49 75.45V75.7C107.49 75.77 108 75.24 108.02 75.22C108.28 74.92 108.57 74.66 108.97 74.6C109.28 74.57 109.23 74.69 109.43 74.79C109.65 74.89 109.56 74.87 109.83 74.74C110.31 74.47 110.86 74.42 111.41 74.43C111.8 74.43 112.46 74.38 112.23 73.81C111.93 73.04 110.86 73.97 110.46 74.17C110.21 74.29 109.89 74.46 109.67 74.2C109.53 74.03 109.58 73.75 109.56 73.54C109.51 73.11 109.4 72.69 109.54 72.25C109.45 72.54 109.3 72.77 109.08 72.83C107.83 73.22 108.05 71.53 107.69 70.87C107.34 70.25 105.5 69.82 104.77 69.98C104.72 69.95 104.67 69.93 104.61 69.89C104.67 69.86 104.72 69.85 104.77 69.82C104.68 69.84 104.56 69.86 104.46 69.89C103.73 70.11 102.99 70.34 102.27 70.55V70.64H102.11V70.55H101.95C101.95 70.55 102.01 70.6 102.04 70.64C101.93 70.86 101.83 71.07 101.73 71.3H101.65C101.65 71.3 101.6 71.35 101.57 71.38H101.41C101.3 71.3 101.18 71.24 101.06 71.16C101.05 71.16 98.98 67.97 98.98 67.97C98.94 67.62 99.3 67.31 99.53 67.13C100.62 67.37 103.59 69.26 104 67.37H104.08V67.29H104.32V67.87H104.4V67.95H104.55C104.63 67.84 104.71 67.74 104.78 67.62V67.21H104.86C104.86 67.21 106.06 67.34 105.56 68.27C105.56 69.73 109.29 67.12 109.7 68.68C109.52 69.2 109.34 69.71 109.16 70.23C109.57 70.23 109.76 71.17 109.62 71.93C109.74 71.52 109.9 71.13 110.07 70.79C110.05 70.76 110.03 70.74 109.99 70.7C109.89 70.46 109.78 70.22 109.68 69.97C109.68 69.88 109.68 69.8 109.68 69.71C109.91 68.9 110.24 67.74 109.37 67.26C109.37 67.26 109.19 66.4 109.77 66.28C109.77 66.49 111.48 67.11 111.8 67.09C112.69 67.45 113.58 67.8 114.47 68.15H114.7C114.81 68.23 114.91 68.32 115.01 68.4V68.32H115.08C115.08 68.32 115.03 68.43 115.01 68.48C114.98 68.51 114.96 68.53 114.93 68.56C115.03 68.61 115.14 68.67 115.24 68.72V68.63H115.31C115.27 68.41 115.23 68.19 115.19 67.97C115.16 67.97 115.14 67.99 115.12 68C114.51 68 114.68 67.3 114.88 67.02C115.41 67.1 115.84 67.2 116.21 67.58H116.13C115.96 67.65 115.78 67.72 115.62 67.79C116 67.76 116.36 67.74 116.73 67.73C116.79 67.67 116.84 67.62 116.89 67.57C116.71 67.57 118.03 67.68 118.77 66.82V66.74C118.85 66.79 118.93 66.86 119.01 66.91C119.06 66.94 119.11 66.96 119.17 66.99C119.19 66.96 119.22 66.94 119.25 66.91V66.33C119.07 66.41 118.89 66.5 118.7 66.58" fill="#85B09A"/>
</svg>
