<svg xmlns="http://www.w3.org/2000/svg" fill="none" viewBox="0 0 120 106"><path fill="#85B09A" d="M112.41 64.29c0-.5-1.89-.79-.47-2.05v-.08c.89.45 1.29 1.36.47 2.13Zm-3.68-5.49c.17-.13.31-.27.48-.41.1.14.21.28.31.41m-.31 7.77v.08c-.24-.09-.48-.19-.72-.28-1.02-.05-2.02.7-2.49-.77.29-.25.58-.5.85-.74 1.21.04 3.52.23 2.36 1.72m-3.84-15.62c-1.38 0-2.01.37-3.13-.58h-.07c-.16.19-.31.38-.47.58h.08v.08c-.57 0-2.99-1.98-2.88-2.35.13-.4.77-.46 1.07-.6 1.83.56 4.75.66 6.03 2.22-.21.21-.42.43-.63.65Zm-.55 7.03v.09s-.05-.05-.08-.09c-.35 0-.53-.75-.55-1.06.35-.28.68-.55 1.02-.81 1.12.74.61 1.25-.39 1.87Zm-.39 2.05c.72.37.74.85.23 1.47-.87 0-.56-1.09-.23-1.47Zm.27 4.3c-.65-.1-1.05-.7-1.83-.7-.48 0-2.35.22-2.2-.55.1-.53 2.37-.21 2.83-.35.5.09.99.16 1.48.24.16.33.31.66.47.98l.08.08c-.28.1-.55.2-.82.3m-5.29-10.77c.14-.25.26-.49.39-.74.5.05.99.07 1.26.49-.13.14-.26.28-.4.41-.41-.05-.83-.11-1.26-.17m-.46-11.29c.12-.08.36.34.24.49-.23.07-.43-.34-.24-.49Zm1.56 3.85v.16c-.52 0-.89.1-.86-.65.29.17.58.33.86.49Zm3.45.08h.08v.16s-.05.06-.08.09c-.34.16-.68.32-1.02.49-.53 0-.92-.34-.87-.9.64.06 1.26.11 1.88.16m-1.34-9.98v-.08c.52.26.69.57.48 1.15-.53 0-.77-.67-.48-1.06m2.27 2.94c1.5.47 1.88 1.74.63 2.78-1.92 0-2.09-1.92-.63-2.78Zm.24-3.11c.23-.08.47-.16.7-.24.4.39.34 1.15-.33 1.2-.42.02-.46-.63-.44-.95h.08l-.01-.01Zm1.92 28.19c-.44.41-.73-.53-.75-.87.28.07 1.26.41.75.87Zm.82-4.31c.41.09.83.17 1.25.25v.16c-.13.14-.26.27-.4.41h-.07c0 .41-1.27-.43-1.41-.65.21-.05.41-.1.63-.17Zm-2.36 10.72c0 .66-.73.41-.79-.17.26.05.53.11.79.17Zm1.17.98c.25.2.87.63.7 1.01-.18.45-1.93 1.01-2.27.53-.56-.77 1.29-1.3 1.66-1.46h-.08v-.08h-.01Zm.55.08h.15c-.05.07-.1.11-.15.16v-.16Zm5 2.45v.08c-.1-.03-.2-.05-.31-.08h.31ZM98.37 40.8c-.16 0-.88-.04-.63-.41.21.05.42.12.63.16v.25Zm-.55 13.41v-.08c-.02-.22-.06-.44-.08-.66h.47v.08h.07c-.15.22-.31.44-.46.66Zm.31 15.05c-.71 0-1.36.43-1.95-.25.02-.05.05-.1.07-.16.06-.03.11-.05.16-.08v-.09c.58.14 1.15.28 1.73.41v.16l-.01.01Zm-2.4 1.36c-.05-.35.3-.22.29-.21.28.22-.06.26-.29.21Zm-.18.84c-.03.47-.05.93-.08 1.39-1 0-1.53-.47-1.33-1.55.47.03.94.05 1.41.08v.08Zm-2.9 8.51c.06-.06.11-.11.16-.17.77.05 1.35.13 1.8.74.24 0-1.56 1.1-1.97-.57m-1.33-16.36v.08h-.08c.05.38.1.75.16 1.11-.16.92-1.68.68-2.14.21-1.06-1.06-.09-2.05.81-2.79v-.08c1.07.02 4.73-.1 3.13 1.47h-1.88Zm.12 7.66c-.35.09-.46-.32-.12-.47.16-.33.37.39.12.47Zm-3.25 12.79c-.87.11-1.23-1.27-.7-1.81.47.2.94.38 1.41.57 0-.44 1.22-.56 1.25.16.04.92-1.32.99-1.95 1.08m.94 1.71c-.24 0 .28-.87.4-.98v-.09c.86.34.46 1.06-.4 1.06m-3.45-5.97c.31-.18.63-.38.94-.57.41.11 1.1.52.67 1.05-.52.62-1.31.05-1.61-.48Zm4.08.41v.25h-1.1v-.16h.07c.18-.11.37-.22.55-.33.15.08.31.16.47.24m-4.78-3.52c.58-.21 1.15-.43 1.72-.65.03-.03.05-.06.08-.09-.08-.05-.15-.11-.23-.16v-.25c.12-.13.26-.28.38-.41.92.05 1.83.11 2.75.16-.21.45-.42.88-.62 1.32-.01.11-.01.23-.02.35.24 1.8-3.54 1.65-4.06-.28m-1.32 4.58c-1.28 0-1.26-1.21-.39-1.8.83 0 1.8-.08 2.27.57 0 .44-1.56 1.06-1.88 1.23Zm-1.41-4.99c.13-.05.26-.11.39-.17.3.14.6.51.18.71-.36.18-.67-.2-.57-.55m-.59-7.27c-.8-.22-.36-1.72.04-2.14v-.08c.9.37.87 1.05 1.1 1.97-.4 0-.66.38-1.14.25Zm-1.53-4.1h-.08c-.48.43-.99.87-1.48 1.3-.01.07-.03.13-.05.2.17 1.23-.96 1.06-1.68 1.53-1.12 0-.62-1.49-2.51 0-.58 0-1.14-.22-1.64.07v.09c-.4.41-.79.81-1.18 1.23v.32h.09v.09c.52 0 .89-.5 1.51-.28 2.14.76-4.07 5.48-4.96 5.09-.3-.13-.44-.49-.49-.83-.24-1.64 1-1.86 1.9-2.68-.09-.23-.2-.45-.29-.68-.31-.81 1.41-5.73 2.06-6.1.45-.27 4.04.24 4.43.56.43.35.54.98.61 1.55h.23c.16-.18.33-.35.48-.54 0-.44-.02-.89-.02-1.34.47-.79.95-1.58 1.42-2.37.78.18 4.92 2.61 5.17 3.27-.21-.05-.43-.11-.63-.16v.09c-.42.04-.85.09-1.27.14-.55-.14-.9-.62-1.62-.55Zm-1.25 6.98c-.82-.53.26-1.05.7-1.17.28.52.07 1.67-.7 1.17Zm-2.81 5.86c-1.7-.05-.68-4.35.08-4.99 1.77.57 1.45 5.03-.08 4.99Zm.17 5.83c-.26.32-.74-.01-.88-.27.07-.19.15-.38.23-.57.32.05.97.44.65.85m-3.03-4.79c-.43-.14-.42-.71-.67-1.04-.05-.03-.11-.06-.16-.09-.41.47-.83.93-1.25 1.39l-.08.08c-.28.17-.57.32-.86.48-4.67 0-.83-3.64.55-4.9.41.56.82 1.1 1.22 1.65.56.43 1.75.22 2.1.87.23.45-.25 1.73-.85 1.55m-7.09 5.66v.08c-3.07 0-1.59-3.14.08-4.01 2.68 1.75 1.71 2.28-.08 3.93Zm1.02-5.07v.24c-.4 0-.49.38-.94.09.06-.13.11-.28.16-.41.21.03.42.05.63.08h.15Zm-4.99-11.51c.5-.8.99-1.6 1.48-2.39.62.33.92.86 1.25 1.48.03-.03.06-.07.07-.09.72 0 .85-1.1 1.84-.78 2.24.72.99 2.16-.19 2.9-.85 0-1.46.2-1.8.98h.08v.08c.03-.05.06-.11.07-.16 2.23 0 .27 2.79-.41 3.43-2.15 2.03-2.69-4.21-2.39-5.45Zm.85 18.21c.16.25.31.49.47.73l.08.08c-.68 0-.91-.11-.55-.81Zm-1.26-33.12c.52.29.75.76.16 1.06-1 0-.98-.81-.16-1.06Zm1.73 12.26c-.11.11-.21.22-.31.33-.08-.02-.16-.07-.24-.08-.12-.25-.26-.49-.39-.74h.08c.18-.05.37-.11.55-.16.11.21.21.43.31.65Zm1.65-13.98c-.06.03-.11.05-.16.08v-.08s.06-.06.08-.09c.03.03.05.05.08.09Zm-3.37-4.42c.16-.09.31-.17.48-.25 1.54.88 1.78 2.1 1.25 3.69v.07h.86s.74-2.02 1.42-1.05c.01.15.03.32.04.47-.29 1-2.18 2.61-3.19 1.78-.45-.37-.32-.94-.62-1.36-.3-.34-.6-.7-.91-1.05-.15-.67.6-1.52.67-2.31m-1.17 31.57v-.08c.33.45.27.82.08 1.3-.46 0-.22-1.02-.08-1.22Zm-.4 8.83c-.33 0-.6-.41-.55-.73v-.08c.37.17.58.33.7.74-.05.02-.11.05-.16.08m-.62 4.42c.13-.28.26-.55.39-.81.18.53.47.93-.39.81Zm.24 1.42c-.59.49-.79-.63-.71-1.01.23.1 1.18.63.71 1.01Zm-2.04-7.71c0 .17-.67 2.32-.79 2.7 0 .1.01.21.02.31.38 1.23.33 2.36-.41 3.36-.75 0-1.63-4.34-1.73-5.24-.03-.05-.05-.1-.08-.16-1.08 0-1.21-5.03.24-5.81v-.16c-1.19 0 .07-1.6.38-1.8 1.07.21 1.42.53 1.49 1.71h-.08c-.5.09-1 .16-1.49.24-.05.03-.1.06-.16.08 0 0 1.4 1.37 1.88 1.48.19.89.36 1.8.55 2.7.52 0 2.64-.65 2.52.59-.08.75-2.03.06-2.36-.02M56 94.71c-.86 0-2.24.58-1.73-1.39-.1-.09-.21-.17-.31-.25v-.16c.21-.2.42-.39.63-.58v-.08c.83.41.89 1.16.94 2.12h.08c.13.05.26.11.4.16v.17l-.01.01Zm-1.51-44.84c.21-1.17 0-2.14.56-3.09 1.26.65 1.09 2.48 1.95 3.45.54.61 1.68.61 2.07 1.21.19.28-.18.56-.34.74-1.4 0-2.28 1.37-4.2.78-1.65-.51-.2-2.23-.04-3.09Zm-.95-8.97c-.93-.88.36-1.58 1.04-1.81.8.25 1.53.24 1.96 1.06h-.08c-.62.62-2.1 1.51-2.92.75Zm.02 26.72c-.23.53-.46 1.04-.69 1.57-.18 1.32-.08 2.43-.63 3.52-.06 0-.12 1.67-.7 1.82-1.37.39-.85-1.64-1.02-2.39l-.25-.25c-1.19-.88-.76-3.81-1.09-5.23.08-.11.16-.22.23-.33-.41 0-.51-2.99-.47-3.6.45-.22.89-.44 1.33-.65 2.29.08 3.59 3.36 3.28 5.54m-1.56-9.06c-.58 0-.64-.7-.47-1.06.4.25.53.54.47 1.06Zm-4.09-3.73c-.27-.63 1.71-1.21 2.13-1.43 1.17.12 3.28 1.56 2 2.82-1.19 1.16-1.54-1.44-2.85-1.02h-.07s-1.04.01-1.2-.37m-.14 18.12c-.08.09-.16.16-.23.25-.21-.06-.41-.11-.62-.16h-.16v-.17c.08-.1.16-.21.24-.32l.78.24v.16h-.01Zm-.7 8.18c.33.22.5.45.63.82-.65 0-.97-.22-.63-.82Zm-1.48-15.05c.44.03.89.05 1.33.08v.08c.26 0-.06 1.12-.17 1.23-.77.83-1.84-.54-1.16-1.39Zm.26 5.97c-.57.56-1.67-.24-1.05-.97.4.14 1.24.32 1.05.97Zm-1.6-13.57v-.09c.79.1.97.83.55 1.46-.85 0-1.13-.77-.55-1.38m.12 11.48c-.86.84-2.31-.66-1.38-1.6v-.07c.5.13 2.15.92 1.38 1.67Zm-.98 13.54v.09h-.16c0-.5-.5-.75-.08-1.32v-.08c.43.42.63.78.24 1.31Zm-.55-8.27v.09h-.16c0-.51-.58-.72-.38-1.4.6.25.7.68.54 1.31Zm-1.25-13.41c-.08.08-.16.16-.24.25v.08c-.56 0-2.03.09-1.64-.92.65-.51 1.31-1.02 1.96-1.54 1.53.42.85 1.56-.07 2.13m-.88 11.86c-1.74 1.93-3.64-.76-1.87-1.8.85.12 2.92.62 1.87 1.8Zm-2.73-11.53h-.08c-.18.05-.36.11-.55.16.03-.26.05-.54.08-.81v-.08c.21.03.42.05.63.08-.03.22-.05.45-.08.66m-1.25 6.21c0-.47.71-.83 1.02-1.06.76.86-.26 1.04-1.02 1.06Zm-.31 5.33c.5.38.82.82.93 1.47-.97 0-1.99-.71-.93-1.47Zm-.09-4.17c-.05.05-.1.11-.15.17v-.17h.15Zm-1.69.05c-.87-.32-.65-1.4-.11-1.94.62.14 1.25.28 1.88.41 0 .85-.92 1.83-1.78 1.52m-2.07-12.49c1.08.23 3.26.76 2.04 2.13-1.36 0-4.28-.81-2.04-2.13Zm-.08 11.29s-.05.06-.08.08c-1.29-.12-1.49-1.31-.47-2.04.38.54.53 1.28.62 1.96h-.08.01Zm-2.74-20.33c-.31-.03-.63-.07-.94-.11-.02-.01-.05-.03-.08-.04-.37-.38-.75-.75-1.11-1.14-.97-.4-1.95-.81-2.92-1.21-.04-.08-.08-.15-.12-.23-.4-1.59 2.41-.8 2.91-.41h.09c.15-.19.31-.38.46-.57 2.66 0 .24-2.38 1.64-3.19v-.09c1.39.33 2.34 3.54 2 4.71-.28.28-.55.57-.82.85.01.05.03.11.03.15-.18.67-.44 1.16-1.14 1.27m-.7 10.68h-.08c0 .26-1.12-.1-1.25-.16h-.08c-.34.43-.68.87-1.02 1.3-.88 0-1.67-.02-2.19-.73.6 0 .77-1.8 1.53-1.96.58.16 1.17.33 1.76.49.23-.35.47-.71.7-1.06.83.54.68 1.19.63 2.13m-4.23 3.93c.26.19.52.38.79.57-.39 0-1.16.26-.79-.57Zm-.94-13.82c.05-.11.11-.22.16-.33h.7v.41c-.28-.03-.57-.05-.86-.08Zm-.7-3.27c-.73 0-1.14-.8-.94-1.47.73.26 1.09.47 1.09 1.39-.05.03-.11.05-.16.08M21.89 60.8c-.88-.23-.04-1.4.42-1.59.63.49.64 1.87-.42 1.59Zm-1.48 9.34c-1.61-.98.29-1.81 1.19-2.1 1.71.7.26 2.98-1.19 2.1Zm1.35 5.75v-.16h.16c-.06.05-.11.1-.16.16Zm-1.72 3.51c-.83.2-.58-1.18-.33-1.54.47.2 1.18 1.33.33 1.54Zm-.17-8.66c.13.06-.18.54-.4.16.14-.05.26-.11.4-.16Zm-.4-8.92c.11.22.21.44.32.66h-.08v.08h-.24v-.74ZM22.69 57s-.8.29-1.17.07c-.45-.26-.1-.92.08-1.21.38.38.74.75 1.1 1.14m-2.35-3.03c.68.06 1.36.11 2.03.16-.1.22-.2.43-.31.66-.02.03-.05.05-.08.08-.63-.03-1.26-.05-1.88-.08v-.08c-.03-.19-.05-.38-.08-.57.1-.05.2-.11.31-.16m0-.09c-.02-.21-.04-.43-.08-.66.04.22.06.45.08.66Zm3.91-11.2c.16-.13.31-.27.47-.41v-.08c.3.45.23.93-.47.65v-.16Zm.63-15.38c.03-.05.04-.11.08-.16.93.38 1.51 1.98.07 2.13-1 .1-.61-1.6-.14-1.97m-1.18-7.2h.08c.21-.05.41-.11.63-.17.13.06.26.11.38.17h.16c0 .81-1.26.88-1.26 0m2.42 5.15c-.02.27-.05.54-.08.82-.36 0-.55-.58-.55-.9.21.03.42.05.62.08m1.18 13.5c-1.02 0-1.68-.89-1.8-1.88h.08c.24-.05.47-.12.71-.16 1.09.17 1.81 1.04 1.02 2.04m-.47-11.62c.16.06.9.45.58.74-.48.43-.6-.44-.58-.74Zm1.56 12.76v-.08h.16c-.03.06-.05.11-.08.16v-.08h-.08Zm-.31-21.84c.34.06.67.11 1.01.17 0 .89-.95.38-1.17 0 .06-.05.1-.11.16-.17Zm2.27 8.75c1.19.11 1.58.94 2.42 1.64 0 .43-.67.66-.93.81h-.08s-1.16.05-1.41-.08l-.39.33c-1.51 0-.89-2.16.39-2.7Zm2.66-9.57v.08h.08v.16c-.1.06-.21.11-.32.17-.39.11-.78.21-1.17.32-.11-.24-.21-.49-.31-.73h1.72Zm2.17 11.17c-.69 1.13-3.28-.05-1.93-1.36.56.02 2.52.4 1.93 1.36Zm.41-12.81c.62.32 1.02.77 1.02 1.55-.86 0-1.45-.46-1.49-1.38.16-.06.31-.11.47-.17Zm.87-4.66v-.08c.38.17.78.33 1.17.49v.25c-.21.19-.41.37-.62.57-.36-.16-.73-.33-1.1-.49.19-.25.36-.49.55-.74Zm.15 12.35c-1.43 0 .04-1.58.47-1.8 1.16.63.31 1.25-.47 1.8Zm-.39 32.96c1.06.49.88 1.56-.39 1.56-.5 0 .23-1.41.39-1.56Zm-.39-37.54c.48.21.81.47 1.17.9-.24.16-.47.32-.71.49-.85 0-.93-.88-.46-1.39ZM34.1 43.82c-.13.03-.26.05-.39.09h-.08v-.09c-.05.03-.1.05-.15.09 0 .47-.97.39-1.17.11-.58-.81-.06-2.39.7-2.73.84.05 2.1-.09 2.65.5.51.56.14 2.01-.55 2.22-.33-.07-.68-.13-1.01-.19Zm-1.09 5.56.08-.08c.08-.16.16-.33.24-.49.23.11.47.21.7.33-.33.08-.68.16-1.02.24Zm1.33 4.49c1.83.89-.4 2.93-1.62 1.44-.87-1.05 1.02-1.34 1.62-1.44Zm4.93.17c.75.15 4.27 2.7 3.57 3.48-.35.36-3.62-1.05-3.8-1.38-.35-.62-.01-1.56.23-2.1Zm.48-35.83c.42.42 1.36 2.1.23 2.28-1.47.23-1.09-1.77-.23-2.28Zm.7 12.35c.2.14.64.73.16.8-.49.08-.32-.59-.16-.8Zm0-16.19v-.08c.33 0 1.44.02 1.24.59-.21.56-1.53.24-1.24-.51Zm5.79 9.49v-.41c.14.05.26.11.4.16v.16h-.08v.09h-.32Zm-.55 39.1c1.27.92.99 1.98-.23 2.54v.08c-.92 0-.39-2.14.23-2.62Zm-.7-13.34c-.73-.06-.16-1.2.08-1.46.5.32.92 1.55-.08 1.46Zm-.55-26.82c0-.45-.01-.68.31-.99v-.08c.77.38.64 1-.31 1.07Zm-.63 4.9c.22.15.64.78.09.83-.51.03-.35-.65-.09-.83Zm-1.41-4.33v-.57c.16.13.31.27.47.4h-.08c-.13.06-.26.11-.39.17Zm.78 27.24c1.9.78 2.98 4.21.05 4.32-1.07.04-2.04-2.6-1.48-3.5.48-.27.95-.54 1.43-.82Zm-1.17-34.76c.93.49 1.01 1.6 1.33 2.53-.08.17-.16.33-.24.49-.03-.03-.05-.06-.08-.08.03.06.06.11.08.16.06.05.12.1.19.14 1.02.17 2.61-.44 3.1-1.36-.05-.06-.11-.11-.16-.17.42 0 .67-.49 1.24-.33.33.09.55.38.63.7.38 1.46-.95 1.44-1.7 2v.41c-1.13 0-2.96.71-4.36.3-1.32-.38-.79-3.98-.03-4.71v-.08Zm1.88-1.47v.08c.02.22.05.44.07.65h-.07v.08c-.38 0-.53-.48-.55-.81h.55Zm.39 2.45c-.16.05-.32.11-.47.16-.1-.24-.2-.49-.31-.73.39.12.59.22.79.57m1.73-1.39h-.09v.08c-.6 0-.68-.76-.46-1.14v-.08c.18.38.36.76.55 1.14Zm1.02-3.93c.56.04 1.69.15 1.46.96-.43 1.57-1.78 1.37-2.47.27v-.08c-.35 0-1.44.95-1.61.11-.2-.95 2.15-1 2.62-1.26Zm1.26 18.08v-.08s.04-.06.07-.08c-.02.05-.05.11-.07.16Zm-.63-4c-.01-.22.37.48.18.53-.23.06-.21-.41-.18-.53Zm-.47 19.14c.13-.19.26-.39.39-.57 0 .37.2.91-.39.57Zm3.75 7.42c-.46.3-.94.61-1.4.92l-2.43.24c-1.26-.64.82-4.22 1.49-4.74.75.32 2.87 2.63 2.34 3.58ZM49.09 30.5c.66.3 1.14.8.62 1.47v-.08c-.86 0-.95-.8-.62-1.39Zm-.08-10.72v-.08c.55.09 1.79.86.92 1.48-.95.67-1.6-.68-.92-1.4Zm.16-6.55c.23.22.47.44.7.66-.11.03-.21.05-.31.08-.35 0-.44-.45-.39-.74Zm2.19 24.71c1.28.62.59 2.2-.65 1.58-.91-.44.18-1.34.65-1.58Zm-.47-25.93v-.08c.18.03.36.05.55.08.05.03.1.05.15.08v.16c-.13.17-.26.33-.39.49-.31 0-.38-.51-.31-.73Zm1.1 11.94h.08c-.05.05-.1.11-.16.16.03-.05.06-.11.08-.16Zm.15-.65c.03.11.06.22.08.33h-.08v-.33Zm.53 26.04c-1.47.24-1.29-2.37-.45-2.98v-.09c.35.42 1.44 2.9.45 3.06m2.06-20.89c-.13.11-.26.22-.4.33h-.08c-.07-.03-.15-.05-.24-.09v-.49c.21.06.42.11.63.17.02.03.05.05.08.08m-.4-5.32c1.64 1.11.84 1.91-.94 1.96 0-1.08-.02-1.49.94-1.96Zm.55-15.13c.1.3.21.6.31.9-.18.22-.37.44-.55.65-.03.03-.06.05-.08.09 0-.81-.67-1 .31-1.64m.39-2.21c.52.02 1.93.19 1.41 1.02-.66 1.04-1.96.08-1.41-1.02Zm.71-3.27v.66c-.51 0-.8-.28-.78-.82.26.05.52.11.78.16Zm.31 1.89c.12-.06.26-.11.38-.17.58.04 1.1.04 1.49.41.1 0-.79.39-1.72 0h-.15V4.4Zm1.95 2.37v.08c-.18-.1-.37-.22-.55-.33v-.25c.1-.05.21-.11.31-.16.14.22.26.44.39.65h-.16l.01.01Zm2.11.82c.26.22.53.44.79.66h-.08v.08c-.45.28-.89.55-1.33.82-.8 0-1.78.08-2.35-.41-.96 0 2.71-1.1 2.97-1.15Zm.08-3.68c1.07.14 1.75.67 2.19 1.64-.25.28-.52.54-.78.82-.98 0-1.39-1.1-2.27-1.31v-.08h-.08c0-.42.66-.87.94-1.07Zm2.19-1.39s-.05-.11-.08-.16c.02.05.05.11.08.16Zm.47 5.3c.4-.03.78-.06 1.17-.09h.15c.24-.34.47-.68.71-1.03 1.71.6 1.61 1.53.93 2.95h-.15c-.37.03-.73.05-1.1.08-.29-.27-.6-.54-.89-.8-.16-.11-1.12-.77-.83-1.1m3.35 6.09c-1.06.74-2.04-.84-1-1.65.55.13 1.97.95 1 1.65Zm.64 6.04c.79 0 3.33-.31 3.28.81-.04.77-1.95.77-2.49 1.16v.08h-.08c0-.79-1.43-.96-.71-2.05Zm.86-11.69c.19.11.37.21.55.32-.13.33-.26.66-.39.98v.09c-.42 0-.24-1.17-.16-1.39Zm1.35-2.55c-.55.48-.86-.74-.87-1.13.31.08 1.4.66.87 1.13Zm5.23 3.2c.07.13.16.28.24.41-.97 0-2.91 1.27-3.79.77-.28-.31-.55-.63-.83-.93-.13.16-.26.32-.4.49v-.09c-.96 0-1.06-1.15-.43-1.66.57-.13 1.12-.26 1.68-.38 1.16.43 2.3.96 3.52 1.39m-.79-2.45v-.08c.29.13.58.27.86.4.2 0-.11.58-.26.67-.83.42-1.53-.45-.6-.99Zm1.34 3.27c1.03.33.95 1.34-.24 1.22h-.16v.17s.24.92-.1 1.08c-.79.38-2.08-.91-2.01-1.73.52.03 1.04.05 1.56.08-.21 0 .82-.75.95-.81m1.32 6.63c-2.05 0-4.99 2.22-6.52-.45-.33-.57.27-1.16.65-1.51.24.08.47.16.71.24.36 0 .28.44.69.44 1.12 0 2.68-1.07 3.21.55.06-.02.11-.05.16-.08 0-.27 1.01.43 1.09.82m-.16-2.74c.17-1.06 3.07-.58 4.08-1.77.94.33 2.27 1.51 2.35 2.62l-.63.24c-.45.17-.89.33-1.33.49-1.13 0-4.8.45-4.47-1.58Zm7.13 2.9c.6.12 3.86.93 3.42 1.73-.45.81-5.26.32-3.42-1.73Zm.55-3.51c.84.39 1.08.89 1.17 1.88-.11.05-.23.1-.33.14-1.27.12-1.96-1.3-.84-2.02Zm2.82-2.54c.56.36.94.93 1.57 1.15 0 .73-1.13.66-1.57.57h-.08c-.5.05-.99.11-1.48.16-.11-.02-.21-.05-.32-.08 0-1.39.82-1.55 1.88-1.8Zm2.28 5.32c-.56 0-1.05-.4-.63-.9.51.15.78.33.63.9Zm.07 3.48c-.7 1.04-2.22-.05-1.09-.78.28.03 1.45.26 1.09.78Zm.87-7.49c.16.11.31.21.47.33v.33c-.16.08-.31.16-.47.24-.21-.05-.42-.11-.63-.16.21-.25.42-.49.63-.74Zm.23-2.12c.26.03.52.05.78.08.02.3.05.6.08.9-.47.87-1.85-.14-.87-.98m-.47 5.8c.23.03.47.06.7.08 0 .74-.81.65-.7-.08Zm2.42 8.34c-1.27 0-2.41.06-3.37.66-.89 0-3.65-.46-3.15-1.9.34-.99 2.04-1.09 2.83-1.45.38.33.47.63.55 1.14 1.11 0 4.4-.5 3.13 1.55m.32-5.64h-.08c0 .25-.8-.4-.87-.74.46.14.72.32.94.74m.15-5.97v1.06h-.08v.08h-.08c0-.37-.45-.65-.4-1.14h.56Zm.32 4c-.51 0-.82-.17-.71-.73.24.24.47.49.71.73Zm.7 5.73s.06-.05.08-.08c-.03-.24-.05-.49-.08-.74.29.24.58.49.86.74h-.46v.08h-.16v.08c-.04.24-.1.49-.16.74v.08c-.18-.06-.36-.12-.55-.17.16-.24.31-.49.46-.73m.08-3.52h.47v.25c-.1.05-.21.11-.31.16-.07-.03-.16-.05-.24-.08h-.08c.06-.11.11-.22.16-.33Zm1.25-4.74c.6.19.98.5 1.25 1.06 0 .58-1.48.4-1.72.1-.32-.41.18-.93.47-1.17m-.94 9.98c.06-.14.11-.27.16-.41.16.03.31.05.47.09v.08c.02.08.05.16.08.24h-.71Zm-.29 1.83c-.38.48-1.77-.2-.96-.69.36 0 1.39.13.96.69Zm-1.12 3.15c-.48 0-.77-.9-.78-1.31.13-.05.26-.11.39-.16 1.02.3 1.27.85.39 1.47Zm-1.52 14.62c-.48.56-1.28-.4-.98-.96v-.08c.41.05 1.55.36.98 1.04Zm-2.31 25.86c-.8 0-1.56.07-2.12-.49 0 0 .57-.47 1.02-.31.19-.09.37-.17.55-.25v-.09c.55.14 1.09.28 1.64.41-.02.12-.05.22-.08.34-.33.13-.68.27-1.02.4m-2.27 1.48c.18-.17.36-.33.55-.49.39.33.57.59.32 1.07v.08c-.29-.22-.57-.43-.86-.66m1.33 1.06c.75.09 1.41.33 1.41 1.22h-.16c0 .25-2.06-.4-2.27-.48l-.16-.16c.4-.2.79-.39 1.18-.58Zm-.39-9.49v-.08c-.07-.03-.16-.06-.24-.09v-.16s.06-.05.08-.09v-.09c.29.2.58.39.87.58 0 0-.75 1.84-1.65.9-.61-.65.48-1 .95-.98m-2.04-22.25c-.68 0-1.25-.52-.77-1.14.65.16 1.29.32 1.95.49v.16h-.08c-.37.16-.74.33-1.11.49m.16 15.38c-.1-.22-.21-.44-.31-.66.45.01.78.07.78.58-.16.03-.31.06-.47.09m-1.88 16.85c.13-.06.26-.11.4-.16.51.09 1.04.16 1.56.25h.08c-.47.41-.94.81-1.41 1.22v.08c-.58 0-.72-.94-.62-1.39m.4-1.63v.08c-.11.19-.21.38-.32.58-.31-.08-.62-.16-.94-.25.1-.16.21-.33.32-.49.31.03.62.05.94.09m-.79-18.25c.15-.05.31-.11.46-.16.18.2.46.59.13.77-.4.22-.57-.26-.6-.61m-.32-26.17c.3.08.58.16.87.24 0 .58-.81.3-.87-.24Zm-2.2 26.91c-.61 0-1.49-.04-1.02-.91.6.14.83.3 1.02.91Zm4.62 15.79h-.15c-.34-.05-.68-.12-1.02-.17.07-.1.16-.21.23-.31.41.07.72.13.93.48m-.5-6.52c-.5.18-.67-.53-.67-.93.13-.04.26-.1.39-.16.26.16.79.89.27 1.09m-.57-13.01c.23.15.75.89.33 1.09-.37.16-.93-.21-1.21-.37h-.08c-.34.07-.68.16-1.02.25-.23.07-.47.16-.7.24v-.08c-.95 0-1.36-1.12-.7-1.8v-.09s-.11-.05-.16-.08c-.02-.02-.05-.06-.07-.08.65.15 3.16.61 3.62.92m.21-25.46c-.58.15-.42-.89-.3-1.15.27.15.92.99.3 1.15Zm-.23 4.74c.29.11.58.21.87.33 0 .74-1.44.41-.87-.33Zm2.35 21.68c.05-.2.11-.39.16-.59v-.07c.32.25.23.54-.16.66Zm1.65-10.72c0-1.87-2.96-4.38.71-5.4 1.38 1.16 1.5 2.06.62 3.52-.05.03-.11.05-.15.08 0 .87.05 1.76-.79 2.04-.12-.08-.26-.17-.39-.25m.39 2.7c-.16.06-.31.11-.46.16-.03-.24-.05-.49-.08-.74h.47v.09c.03.16.05.32.07.49Zm.25-9.79c-.3.66-1.77-.17-2.13-.36v-.24h.07c.24-.05.48-.11.71-.17.28.05 1.6.21 1.34.76m-1.74-2.24v.17c-.7 0-1.09.37-1.71-.25.15-.13.31-.28.46-.41.41.16.84.33 1.25.49Zm-1.43 2.15c-.4.39-.79-.53-.92-.75.06-.03.11-.05.16-.08v-.08c.31.09 1.18.48.75.92m-.6-3.7v-.08h.15c-.03.05-.05.11-.08.16v-.08h-.08.01Zm-5.8 15.14c1.03.35 4.55.45 3.76 2.29-.66 0-2.22-.81-2.4.27-.12.72.25.9-.35 1.45-.79 0-.9-.55-1.27-1.08-.86-1.23-1.69-1.85.25-2.92m-3.76 8.59s-.05-.06-.08-.09h.08c0-.49.92-.62 1.26-.57.26-.41.52-.81.79-1.22 2.24.7-.67 3.6-2.04 1.88m-1.64-5.73c.55.07.96.19 1.33.57-.21.36-.41.71-.63 1.08-.85.78-1.82-.92-.7-1.65Zm.24-18.89c-.16-.08-.32-.16-.48-.25h-.08c.02-.21.05-.43.08-.65.19-.08.36-.16.55-.24.4.41.18.74-.07 1.14Zm2.17-3.56c.28 1.14-1.09.59-1.55.62-.05 0-.1.01-.14.01-.99.68-1.92-.42-.95-1.24.65.09 2.47-.13 2.65.61m4.79-2.98c.98.44.24 1.7-.6 1.28-.97-.48.18-.93.6-1.28Zm1.41-3.68c0 .29-2.19.62-1.41-.73.68.07 1.14.15 1.49.73h-.08Zm-.62 6.14c.26.1.99.64.5.95-.52.33-.92-.58-.5-.95Zm-2.36 3.68c.13-.14.26-.27.39-.41v-.08c.21.14.42.27.63.41-.1.11-.21.22-.31.33-.21-.09-.42-.17-.63-.25h-.08Zm-.7 7.61v-.08c.4.17.79.33 1.17.49v.17c-.77 0-1.32 1.26-1.72-.33.19-.08.37-.16.55-.24m.08-2.87c.98.52-.23 1.53-.8 1.05-.55-.46.57-.93.8-1.05Zm-2.35 2.78v-.08c.15.19.31.38.47.57.03.03.05.06.08.08-.31 0-1.15-.06-.55-.57Zm1.33-3.35v.08c-.11.11-.21.22-.31.33-.39-.13-.79-.27-1.18-.41v-.25c.11-.05.21-.11.31-.16.48 0 .94 0 1.18.41Zm-.63-4.5c-.16.08-.31.17-.47.25-.7 0-.96-.42-.78-1.06.68.07 1.08.11 1.25.81Zm1.72-2.86v.17c-.08.03-.16.06-.23.08-.06.25-.1.49-.16.73-.15-.02-.31-.05-.46-.08v.08c-.06.06-.11.11-.16.17-.02.03-.05.06-.07.08v.25h-.63c-.68 0 .44-1.66.63-1.81.34.09.67.17 1.02.25v.08h.08-.02Zm-3.98 19.39c.54.33 2.64.77 1.77 1.78-1.02 1.18-3.62-.76-1.77-1.78Zm-1.02-8.43c.26.09 1.08.35.84.79-.38.72-2.91 1.65-2.56-.47.58-.11 1.15-.22 1.72-.33m1.8 5.32c0-.6 1.25-.95 1.64-1.06.42.32.66.65.62 1.22v.08c-1.02 0-1.43.49-2.27-.24m3.99-10.71v-.08h-.08c.63-.37 1.25-.76 1.88-1.14.77.19 1.14.49 1.33 1.3-.1.08-.2.17-.31.25-1.06 0-1.91-.21-2.82-.33Zm1.61 11.03c-1.15.48-1.34-.68-.44-1.21v-.08c.51.21 1.32.92.44 1.29Zm.25-3.92c-.75.41-.89-.9-.76-1.38.51.1 1.67.87.76 1.38ZM80.5 17.8l.24.24c-.13.14-.26.27-.4.41-.21-.05-.41-.11-.62-.16v.08h-.16c0 .46-.58.74-.86.98-.45-.1-.89-.2-1.32-.28-.34.02-2.54 1.17-2.6.19-.08-1.62 3.52-1.21 4.47-1.05.42-.13.83-.27 1.25-.41Zm-8.38 3.59v-.08c.14-.33.26-.65.4-.98.4.25.51.5.62.98-.33.03-.67.05-1.02.08Zm.6 7.14c1.39.33 3.14-.2 4.18.89-.16.19-.31.37-.47.57h-.16c-.29-.04-.57-.06-.86-.1-1.53-.71-6.57 1.6-6.12-.83.13-.51.27-1.02.4-1.54v-.08c1.41.05 1.89.81 3.02 1.08m-5.22 9.96c.11-.14.21-.27.31-.41.21.14.42.27.64.41-.08.14-.16.27-.24.41-.23-.14-.46-.27-.71-.41Zm-.55 6.3c.7.45.68 1.08.71 1.95-.11.06-.21.12-.31.17-1.12 0-1.92.32-2.74.9-.08-.05-.15-.11-.23-.17-.02-.24-.04-.49-.06-.73.1-.79 1.96-1.55 2.64-2.13m-4.23-30.52c-.15.14-.31.27-.46.41-.13-.05-.26-.11-.4-.16.11-.11.21-.22.31-.33.13.03.26.05.4.08h.15Zm-1.95-3.43v-.08c.91.38 2.67.22 2.97 1.31-.65 0-4.83.42-2.97-1.23Zm2.97 9.98c-.33 0-.61-.3-.78-.57.16-.08.31-.16.47-.25.26.09.52.17.78.25-.16.19-.31.38-.47.57Zm1.65-3.43h.86c0 .62-.15.79-.62 1.06 0-.42-.41-.51-.24-1.06Zm.08 5.72c1.09 0 2.3.52 1.18 1.47-1.28 0-1.77-.05-1.72-1.47-.45 0-.93-.64-1.02-1.06.26-.05.52-.11.78-.17.84.03.78.43.78 1.23Zm-7.6-12.27c-.25 0 .45-.74.55-.82.24.08.48.16.71.25.23 0-.56.68-1.26.57Zm.09 1.88c-.21 0 .31-1.16.38-1.31.81.16 1.15.5 1.1 1.39-.5-.03-.99-.06-1.48-.08Zm.94 8.1v-.08c.05-.19.1-.38.16-.57v-.08c.16.3.3.62-.16.73Zm-.71-6.3.63-.66c.31.05 1.97.95 1.17 1.31-.02-.03-.05-.06-.07-.08v.08c-.74 0-1.16-.31-1.73-.65Zm-2.51 2.94c-.55 0-1.28-.48-.78-1.06.79.07 1.38.3.78 1.06Zm.4-2.12c-1.04 0-.69-1.26-.09-1.56 1.49.15.78.94.09 1.56Zm.7-3.85c-.66 0-1.26 0-1.41-.73.57 0 1.09-.01 1.48.33-.02.13-.05.27-.08.4m2.98 30.27c1.06.1 2.12.76.94 1.55-.9 0-1.9-.82-.94-1.55Zm-1.02-10.07c.4.04.71.15.79.58h-.07c0 .09-1.01.01-.71-.58m-1.48 14.89v-.08c1 .46 1.08 1.6 1.48 2.53-.1.11-.2.22-.31.33-.96 0-1.86-2.06-1.17-2.78Zm-.71-15.62c.19.03.37.05.55.08v.57h-.07v.08h-.23c-.07-.24-.15-.49-.24-.73m.79 12.92c-.21.03-.42.05-.62.09-.9 0-1.6-.69-1.18-1.56 1.04.07 3.55.26 1.8 1.47Zm.7 11.12c.13.08.26.17.39.25-.05.14-.1.28-.15.41-.39 0-.38-.45-.24-.66Zm-2.18.08c.05.05.1.11.15.16h-.08v.09c-.02-.09-.05-.16-.08-.25m-1.65.99c.16-.22.32-.45.47-.66h.71v.09c.03.22.05.43.08.65H54.3v-.07h-.08l-.01-.01Zm2.26 18.64c-1.09.27-.73-1.38-.29-1.8.49.35 1.3 1.55.29 1.8Zm1.89-2.04c-.84 0-1.45-.75-2.42-.57-2.12 0-1.05-4.12.79-3.12.07-.05.15-.1.23-.16.4 0 .28-1.17 0-1.4-1.46 0-2.83-2.25-.63-2.85 2.06.42 1.71 2.69 2.43 4.28.51 1.12 1.24 1.25 1.32 2.68-.57.38-1.14.76-1.72 1.14Zm.24 4.74c-.03.33-.05.66-.08.98h-.09c-.31.03-.62.05-.93.08 0-.56.09-.94.48-1.3h.31c.1.08.2.16.32.24m-.79-2.95v-.08c1.17.57 1.54 1.28.93 2.54-1 0-1.61-1.75-.93-2.46Zm4.93-37.46-.15.57c-.32 0-.57-.3-.71-.57h.08c.18-.06.36-.11.55-.17.08.06.16.11.23.17Zm-.31-8.1c-.16-.03-.31-.06-.47-.08-.03-.17-.06-.33-.08-.5.11-.05.21-.11.31-.16.21.05.42.11.63.16v.17c-.13.13-.26.27-.39.41Zm-.24-3.68-.08.08h-.16c-.16.01-.32.02-.47.04-1.61-.15-2.32-.3-3.6.78-.7 0-1.05-.71-1.46-1.18-.4-.44-1.35-1.53-.29-1.87 1.09-.36 2.23.83 3.19.55.53-.17.88-1.16 1.15-1.59.13-.05.26-.11.39-.17 1.09.1 2.2-.16 2.2 1.23-.03.06-.06.11-.08.16.55 0 1.15.62 1.41 1.07-.72.3-1.46.6-2.19.9m1.26 1.06s.04-.05.08-.08c.02-.03.05-.06.08-.08v-.09c.1.03.2.05.31.09l-.39.24v-.08h-.08Zm5.31 34.11c-.08.9-1.1.12-.77-.57v-.08c.21.03.41.06.62.08.04.2.1.38.14.57m.87-3.1c-.21.17-.42.33-.62.49 0 0-.3-.68-.16-1.14.23.11.47.22.7.33.03.11.05.21.07.33m1.89-1.47v.25c-.6 0-1.15.09-1.17-.66.45.05.87.12 1.17.41Zm-1.31-3.3c-.27.13-.55.24-.82.36-.69-.08-.77-.79-.92-1.38-.23-.47-.45-.95-.67-1.42-.11-.93.63-3.02 1.29-3.58v-.08c.85.26 1.34 1.14 2.04 1.63.05.17.1.33.15.49.14.09.26.16.4.25.02.03.05.05.07.08-.44.46-.89.92-1.33 1.4-.04.07-.08.14-.13.21-.08.91 1.09 1.43-.08 2.05m.84-10.04c-.17 0 .65-.74.78-.82.77.08 1.16.17 1.41.91.11-.03.21-.05.32-.09v.17s-.23 1.63-.63 1.96c0 .56-.24.93-.55 1.31h-.39c0-.69-.19-1.27.31-1.8v-.31c-.16-.62-.84-.89-1.26-1.33m4.46 20.69v.91c-.62 0-.6-.74-.31-1.07.1.07.21.12.31.16Zm-.94-3.76c.11-.08.21-.16.31-.25v-.08h1.1c0 1.39-.83 1.49-1.41.33Zm7.52 2.78c0 .76-.82.8-.87.08.11-.05.21-.1.31-.16.19.02.37.05.55.08m-.55-1.72c-2.08 0-2.11-.94-2.81-2.54.45-.27.89-.54 1.32-.82.3.13 2.96 1.68 3 1.74.69 1.05-.84 1.49-1.51 1.61m8.93-1.06s-.11.07-.17.11c-.56.7-2 .03-1.01-.59.43.11 1 .11 1.18.49m-.16-2.45c-.28-.39-.57-.8-.85-1.2-.31-.18-.62-.37-.94-.57-.5-.52.53-1.17.85-1.35.7.2 2.17.76 2.5 1.48-.13.05-.26.11-.39.16-.4.49-.79.98-1.17 1.47m1.72-8.02h-.55c-.5-.13-.99-.27-1.49-.41 0-.69-.09-1.33.39-1.8v-.08c.94.3 1.51 1.31 1.64 2.29m2.58-7.6c.45.1 1.83.94.97 1.53-.89.59-2.29-.76-.97-1.53Zm1.57 21.83c-.13.03-.27.05-.39.09-.16-.11-.32-.22-.47-.33-.02-.05-.05-.11-.08-.16.08-.11.15-.22.23-.33.24.24.47.48.71.73Zm-.31-3.43c.22.16.6.75.13.89-.53.16-.4-.6-.13-.81v-.08Zm.71 5.07c.2.22.41.44.62.66-.02.06-.05.11-.07.17-.06.02-.11.04-.16.08-.34 0-.59-.47-.71-.74.11-.06.21-.11.32-.16m.47 16.44c.6.46.44.68.08 1.23h-.23c-.19-.16-.37-.32-.55-.49h-.08c.26-.25.52-.49.79-.74m1.17-1.39c.06.08.1.16.15.25h-.15c-.02-.05-.05-.11-.08-.16.03-.02.06-.06.08-.08m.49 5.65c.15.25.39 1.05-.2.92-.56-.11-.13-.71.14-.9-.05.02-.1.03-.18.04-.02-.27-.06-.54-.08-.82.17.33.7.6.32.76ZM17.53 48.74v-.57c.21.06.42.11.63.16-.21.15-.42.28-.63.41Zm-.07 11.61c0-.37.2-.6.46-.81.06.3.11.6.16.89h-.16v.08c-.16-.05-.31-.1-.46-.17m.39 13.83c-.31-.05-.63-.11-.94-.17.08-.18.16-.37.23-.56v-.09c.35.14.68.28 1.02.41-.11.14-.21.28-.31.41Zm-1.12-8.98c-.89.45-1.43-.7-.6-1.24.26.14 1.23.92.6 1.24Zm-1.14 4.73c.05-.13.1-.27.15-.41.19.13.36.27.55.41h-.7Zm-1.65-21.6c.11-.24.21-.48.32-.73.1.06.2.11.31.16h.08c0 .88 1.92 1.61.79 2.62-1.39 1.25-1.93-1.05-1.5-2.05Zm-.39 9.41c.16.05.31.11.47.17.07.54.16 1.09.24 1.63-1.02 0-1.58-1.11-.71-1.8Zm.55 3.36s-.05-.05-.07-.09h-.31c-.02-.11-.06-.22-.08-.33.14.03.26.05.4.08.02.06.05.11.07.16v.17l-.01.01Zm-1.02 16.19c-.02-.3-.05-.6-.08-.9.16.03.31.05.47.07.1.09.2.18.32.25-.24.2-.47.38-.71.58Zm-.7-2.62v-.08c.2.08.41.16.62.25-.16.28-.31.54-.47.82-.45 0-.29-.77-.15-.98m-1.02-3.02c.03-.08.05-.17.08-.25.06-.03.11-.05.16-.08v-.08c.26.05.53.11.79.16v.17c-.35.02-.68.05-1.02.08m-3.03-7.44c-.6-.24.03-.84.37-.99.66.36.45 1.32-.37.99Zm-2.22-3.77c-.21 0 .54-.68.64-.73.9.27.22 1.04-.64.73Zm-1.09 4.83h.07s-.05.06-.07.09c-.18-.18-.36-.37-.55-.55-.41-.62.45-1.17.87-1.42 1.15.45.25 1.29-.31 1.88m-1.57-2.45c.06-.2.11-.39.16-.58.25.22.3.39.31.73-.16-.05-.31-.11-.48-.16m1.1-5.31c.08-.09.16-.17.24-.25.41.16.59.28.7.73-.05.03-.11.06-.16.09-.26-.18-.53-.38-.79-.56m12.37-19.88-.08.08c-.16.08-.34.17-.51.25-2.15 1.1-2.67-.92-1.05-2.29 1.23.48 3.69.47 1.64 1.96Zm-.16 2.61s-.05.06-.08.08c-.13-.16-.26-.32-.4-.48.14-.17.26-.33.4-.49v-.08c.44.28.43.6.08.98m79.92-14.97c.14.03.26.05.4.08h.15c-.18.13-.37.27-.55.41v-.49Zm1.41-5.32c.49.07 1.69.55.9 1.23-.87.74-1.53-.48-.9-1.23Zm1.25 4.34c.33.12 1.67.32 1.55.87-.11.48-.98.38-1.31.6-.31-.03-.63-.05-.94-.08-.03-.36-.06-.71-.09-1.07.27-.11.53-.22.78-.32m-.47 4.98s-.04-.05-.08-.08c.14-.08.26-.16.39-.24.23.08.46.16.7.24 0 .57-.83.21-1.02.08m1.49-11.78c1.11.34.3 1.07-.55 1.07-.45 0 .47-1.01.55-1.07Zm7.28 21.92c.11.11.21.21.31.33.03.02.06.06.09.08-.16.16-.32.32-.47.48h-.31c0-.4.13-.63.39-.89m3.61 6.54h-.09v-.08c.21.05.43.11.63.16.03 0 .06-.01.09-.01 1.01.69 1.04 1.55.14 2.3-.42-.12-.84-.27-1.25-.4-.23 0 .33-1.77.47-1.96m.93.08-.08-.08.08.08Zm2.27 16.69c.38.24.51.49.46.98-.31-.16-.63-.33-.94-.49.15-.16.31-.32.47-.49m4.35 3.83c-.08.03-.16.05-.23.08-.02.03-.05.05-.08.08 0 .14-.64-.75-.71-.98-.02-.04-.02-.08-.04-.12-.7-.63-1.23-.66-2-.12-.61 0-1.47.08-1.91-.31-.56-.51 0-1.37.67-1.33 1.11 0 1.99-.03 3.04-.16-.05.03-.1.05-.15.08.2-.08.4-.14.61-.22 1.96-1.76-3.52-2.66-4.06-2.89v-.08h.31v-.08c-.92 0-1.58.02-2.19-.58-.03-.06-.04-.11-.07-.18-1.47-1.86-.15-2.41-.65-3.56-.02-.05-4.15-3.39-4.6-3.77 0-.05-.02-.08-.02-.11.36-.89.88-1.49 1.9-1.44v-.25s-.3-.58-.55-.65c-1.24 0-1.78-1.59-.51-1.99 1.53-.49 1.75 1.03 2.81 1.5.87.38 1.82.32 2.63.74.33 0 .48-.58.98-.49 1.04.18.98 1.39 2.7 1.39.03-.08.06-.17.08-.24v-.09c-.85 0-.91-1.85-1.02-2.45-.26-.28-.51-.54-.77-.82v.08c.03.09.06.17.09.26.09 1.26-1.43.67-1.9.15-.02-.03-.05-.06-.07-.09.02-.03.05-.05.07-.08h.7c.32-.06.64-.11.94-.16h.16v-.08c-.37-.25-.74-.49-1.11-.74 0-.42-.76-1.5-.94-1.97-.02.03-.05.06-.07.08-.5.03-.99.06-1.49.08-.18-.11-.36-.22-.55-.33v.08h-.07s-.05.06-.08.08v-.08h.08c-.05-.02-.11-.05-.16-.08-.08.05-.16.09-.24.14-.95.2-2.48-1.51-2.04-2.47.25-.55.95-.57 1.34-.95.25-.29.48-.58.72-.86 1.38-1.17 1.37 1.11 2.09 1.32.8.23 1.95-.07 2.66-.13h.07v-.17c-.67 0-2-1.16-2.27-1.79h.08c.68-.06 1.36-.11 2.04-.17v-2.69c-.13-.03-.26-.05-.4-.08 0-.2-.51-.29-.7-.25-.02-.03-.05-.06-.08-.08.1 0-2.75.7-2.34-.98.57-.11 1.14-.22 1.72-.33v-.16c-.05-.06-.11-.12-.16-.17-1.15 0-1.96-.06-1.88-1.39-.08-.04-.16-.08-.23-.11-.68-.09-5.05-.29-5.22-.4-.09-.32-.18-.63-.26-.96-.05-.03-.11-.05-.16-.08h-.08l-1.17.33c-.55.28-1.11.55-1.66.83-1.53.54-2.96 0-4.28-.5-.4.16-.78.32-1.18.49.03.03.06.05.08.08v.08c-2.18 0-2.78-1.53-4.46-2.29v.08c-.11.03-.21.05-.31.08-.08.03-.16.05-.23.08-.16.03-.31.05-.48.09-2.22 0 1.18-3.03 3.69-.58h.08s.05.05.07.08v-.17c.06-.02.11-.05.16-.08-.06-.17-.13-.34-.2-.51-.03-1.49 2.78 0 3.72-.14.1 0 .18-.02.26-.03 1.34-.48 2.27.78 3.35 1.09v-.08h-.08c.02-.22.06-.44.08-.66.52 0 .74-.34 1.25.09.08-.06.16-.12.23-.17 1.41-1.88-3.71-3.77-.78-6.13-.02-.16-.04-.32-.08-.49.06-.03.11-.05.16-.08v-.16c-.75 0-1.11-.18-1.41-.82-.1.24-.21.49-.32.74-1.39 0-2.91-.52-2.35-2.3-.3 0 .09-1.15.17-1.25 1.03-1.5 3.55.5 2.58 2.07.02.03.05.06.08.08v.25h.08c0-.63 1.04-1.4 1.49-1.63h.07c.37.38.74.76 1.1 1.14 0-.46-.3-1.1-.71-1.31-.36 0-.74-.53-.85-.85-.13-.85-.27-1.69-.4-2.53-.69-1.04-2.37-.95-3.3-1.62-.86-.62-1.09-1.54-1.79-2.2v.16c-.13.17-.26.33-.4.49-.28-.02-.57-.05-.86-.08v-.08c0-.14-.01-.27-.02-.4.19-1.1 1.93-1.27 1.66-2.54-.02-.05-.05-.12-.08-.17-.53-.27-1.06-.54-1.6-.81-.94-.19-1.47 1.03-2.31-.17-.45.27-.89.54-1.34.82-.43-.03-.89-.06-1.33-.08v-.08c-.1-.36-.2-.71-.32-1.07-.28-.22-.57-.44-.85-.65-.63-.16-1.26-.33-1.88-.49v-.08h-.08c0 .53-.52.77-.87.98-.31-.16-.63-.33-.94-.49h-.08s.05-.06.08-.08c-.05-.03-.11-.05-.16-.09-.34.11-.67.22-1.02.33v.08h-.08s-.67.37-.94.28c-.43-.12-.69-.72-.85-1.1-.06.11-.11.22-.16.33h.24v.41c.02.17.05.33.07.49-.55.71-1.09 1.42-1.64 2.13-.51-.23-1.02-.46-1.53-.68-2.38-.77-3.04-.96-2.68-3.72.03-.15.03-.27.06-.42-.06-.03-.11-.06-.16-.09v-.08c-.18-.03-.36-.06-.55-.08h-.16c-.07.08-.15.16-.23.25v.08s-1.49 0-1.88-.16c-.03-.82-.06-1.64-.09-2.45h.16c0-.3-2.61-.44-3.06-.33-1.31 0-2.83-.73-4.07-.08-.44.49-.89.98-1.33 1.47-.43 0-2.64-.37-2.29-1.1.19-.42 4.5-1.62 4.97-2.26.02-.02.04-.05.06-.07.24 0-.42-.93-.78-.98-.28.16-.58.33-.87.49-.31.03-.62.06-.94.08-.02.03-.04.05-.07.08 0 0-1.86.66-2.35.66-.71-.14-1.41-.28-2.12-.41h-.23c.05-.05.1-.11.16-.17-.9 0-2.06.08-2.9-.16 0-.85-1.36-.96-1.96-.98-.49.3-.99.6-1.48.9-.52-.11-1.05-.21-1.57-.33-.38.27-.78.54-1.17.82-.16.03-.31.05-.47.08-.8 0-1.4-.24-2.03-.57-.08.03-.15.06-.23.08-.06.19-.11.38-.16.57.11.03.23.06.35.1.48.13.97.27 1.46.4-.06.03-.11.05-.16.08v.08c1.48 0 2.94-.02 2.04 1.88-.24-.11-.48-.22-.71-.33-.03-.06-.05-.11-.08-.16v.08c-.53 0-1.07.56-2.03.41-.05-.13-.1-.28-.15-.41-.06-.03-.11-.07-.16-.09-.72-.04-2.95-.42-3.69-.65-.26-.03-.52-.05-.79-.08h-.08s-.05.06-.08.08c-.13-.03-.26-.05-.39-.08-.05.06-.1.11-.15.17h-.08v.08c.86 0 2.56.15 1.33 1.06-1.49 0-2.88-.67-4.06.16-.29.24-.58.49-.86.74v-.08c-.36.08-.73.17-1.1.25h-.08v.08h-.08v.08h-.08v.08c.23.06.47.11.71.17.15-.08.31-.17.46-.25v-.08c.49 0 2.69.5 2.75-.33v-.08c1.01 0 1.42.82 2.1 1.4v-.09c.37-.21.73-.44 1.1-.66.69-.09 1.39.85 2.03.99.02.03.05.05.07.08v.25c.06-.05.11-.12.16-.17h.08c.07.06.13.13.19.2 1.28.62 2.04.98 2.24 2.67h-.08c-.42-.03-.83-.05-1.26-.07-.64-.15-1.46-.98-2-.9-.58.08-.4 1.48-1.31 1.32-.65-.12-.77-.93-1.27-1.23-.77-.09-1.53-.17-2.29-.26v.08h.07v.08c-.07-.05-.16-.1-.23-.16h-.08c-.11.06-.21.11-.31.16h-.09c.24.2.48.38.71.58.06.02.11.05.16.08-.03.03-.06.05-.08.08 0 1.51-.13 1.26-1.34 1.88-.55.29-1.04.85-1.71.88-.53.03-3.03-1.65-3.44-2.12-.4-.37-.82-.75-1.23-1.13-.48-.07-.66.92-.88 1.22-.02.03-.05.05-.08.09 0-.25-1.61 0-1.73.24-.03.08-.08.15-.11.24-.25 1.28-1.29.67-2.22.96-.87.27-1.2 1.01-2.29.76h-.08v.09s-.11.05-.16.08v.81h-1.01c.12-.37.26-.76.39-1.14-.02-.05-.05-.11-.07-.17.02-.02.05-.05.07-.08-.16-.02-.31-.05-.47-.08-.15.06-.32.11-.47.16h-.08c.03.17.05.33.08.5-.35.17-.7.34-1.04.52-1.19.22-2.01-.58-2.01 1.37 1.15 0 2.97-.36 3.37 1.04.53 1.87-1.8 1.51-2.58 1.08 0 .82-1.71.61-2.12-.24-.13-.08-.26-.17-.39-.25-.76-.27-1.51-.54-2.27-.82-.12 0-.55-1.12-.86-1.31V14c-.04.05-.08.1-.11.15-.34 1.52-1.7 1.05-2.79.83v-.08h-.47c-.21.11-.41.22-.62.33.52.5 1.04.99 1.56 1.48v.08c.15-.03.31-.06.47-.08v-.09s-.06-.05-.08-.08v-.08c.65 0 1.49-.9 1.49.49-.29.38-.57.77-.86 1.14v-.08c-.06.03-.11.05-.16.08-.16.12-.31.22-.47.33-.03.14-.05.28-.08.41.6.11 1.21.22 1.81.33h.08l.08.08c-.01-.52-.03-1.05-.05-1.57.73-1.3 3.57-.67 3.18.99-.24-.08-.47-.16-.71-.25-.12.03-.26.06-.39.09v.07c-.16-.06-.31-.11-.47-.16l-.15.33c0 .99 1.53.29 1.88 1.14-.45.33-.89.66-1.33.98-.02.03-.06.05-.08.08h-.23c-.11.08-.21.17-.32.25h-.16c-.21.08-.42.16-.63.25v.08h-.94v-.08h-.08v.08h-.08c-.39.21-.78.44-1.17.65h-.24c-.21.14-.41.28-.62.41h-.08c.47.08.94.16 1.41.25v.08s-.06.05-.08.08c.37.02.73.03 1.09.06.74-.06 3.11-1.99 3.39-1.42 0 .62-.01 1.24-.02 1.86.03.05.05.11.08.16.66-.13 1.31-.27 1.97-.4 0 1.25-1.07 3.48-1.81 4.42 0 .74-.41.84-.78 1.23-.04-.11-.09-.23-.14-.33-.2-1.22-.62-1.85-1.65-2.45v.08l-.24.24c.05.18.09.37.13.55.15.37.29.73.45 1.09-.02.04-.04.07-.06.1-.42.63-1.36.4-1.93.76-.34.47-.68.93-1.02 1.4-.85.64-1.31-.2-1.39-1.02 0-1.23-2.37-2.39-3.29-1.81.07.06.16.11.24.17-.08.03-.16.05-.24.08v.08c.55 0 .9.69.7 1.15h-.08c-.72 0-1 .28-1.72 0 .02.05.05.11.08.16-.13.03-.26.05-.39.08.08.08.15.17.23.25l.36.18.12.06c.02.03.05.05.08.09.06-.06.11-.12.16-.17h.16v.08s.05.05.08.09h.07c-.07.02-.15.05-.23.08v.08c.11-.03.21-.05.31-.08h.08c0 1.26.09 1.31-1.18 1.72-.38-.13-.77-.28-1.17-.41-.16.06-.31.11-.47.17-.05.07-.09.15-.13.23-.68 1.63-2.2.65-3.23 1.82.02.04.04.05.08.08-.03.03-.06.05-.08.08-.09.03-.16.05-.24.09h-.16c-.44.3-.89.6-1.33.9-.06.03-.11.05-.16.08h.08s-.05.06-.08.08v.08h-.06c-.04.08-.07.16-.1.25h-.08v-.25h-.08v.25c0 .26.55.18.7.08h.64c.1-.08.2-.17.31-.25 0-1.87 4.49-.03 2.34 2.21-.46 0-.94-.08-1.32.16-.16.28-.32.55-.47.82.43 0 .23 1.15.23 1.39v.08h.08c.16.03.31.06.47.08 0-1.06 1.88.15 2.12.42h.07s.05.05.08.07c.11-.11.21-.21.31-.32.87-.44 1.73-.87 2.59-1.31 0 .31.9 1.51 1.09 1.88.43-.12.85-.24 1.28-.36 1.1.31-.49 2.17-.49 2.81h.08s.05.05.08.09c0-.28.77-.6 1.02-.58.34-.05.68-.11 1.02-.16v-.25c.29-.05.57-.11.86-.16v-.16s-.05-.06-.08-.09c.06.03.11.06.16.09.11-.08.21-.16.33-.24 1.18-1.31 2.89-.33 3.67.89v.25h-.55c-.1.06-.19.12-.28.18-1.02.5-1.43 1.77-2.31 2.29-.63.15-1.26.32-1.88.47v.08c-.71.08-1.41.16-2.12.24v.08h-.08l-.39.99c-.05.03-.1.06-.16.08-.11-.06-.21-.11-.31-.17h-.15c0 .66-1.32.29-1.57 0h-.08v.08h-.09c-.31.3-.62.6-.94.9-.02.03-.04.05-.08.08-.11.03-.21.05-.31.08-.05.03-.11.05-.16.08-.24-.11-.48-.22-.72-.34-.58-.12-2.7-.27-2.61.71.36.61.7 1.22 1.06 1.84 0 0 1.15.52 1.42 1.38l-.87.66h-.15v.16c-.11.06-.21.12-.31.16v.25c-.08-.04-.16-.11-.23-.16v.08c-.21.14-.42.27-.62.41v.08c-.32-.16-.63-.32-.94-.49-.06-.02-.11-.05-.16-.08-.18-.1-.36-.22-.55-.33-.05-.03-.1-.05-.16-.08-.23.19-.47.38-.7.56v.09c.34.32.68.65 1.02.98-.52.54-1.05 1.08-1.56 1.63H4c0-.21-.86-.47-.86-1.14-.03-.03-.06-.05-.08-.08-.05.03-.1.05-.16.08v-.17h-.08v.09c-.36.08-.73.16-1.09.24v.09h-.16c-.05-.03-.11-.06-.15-.09-.02.09-.05.17-.08.25v.17c-.31.43-.63.87-.94 1.3-.05-.05-.1-.11-.16-.16-.03.13-.05.27-.08.41v.08h.47v.24c.34-.19.67-.38 1.02-.58.06.02.12.05.18.07.6.55.38 1.35.75 1.97.16-.13.31-.27.47-.41v-.16h.16c.61.43 1.21.85 1.82 1.27.61 1.01-2.98 1.67-3.7 2.24h-.16c0 .39-.21.79-.55.91-.21.16-.42.32-.62.48.1.52.2 1.04.31 1.56.02-.06.05-.11.07-.17v.41l.08-.08c.11.06.21.12.31.16-.02-.08-.06-.16-.08-.24h.08v-.08c.06.03.1.05.15.08.26-.08.52-.16.78-.25 1.04 0 .46 1.4.08 1.72v.08s.06.05.08.08v.09h-.08v.08c-.02-.05-.05-.11-.08-.16h-.07c-.08.2-.16.39-.23.57.29.25.57.5.85.74h.08s.06.05.08.08c.13-.16.25-.33.38-.49.76-.18 1.52-.37 2.28-.55.78-.41 1.09-1.44 1.88-1.9.15.06.31.12.47.16.06.33.11.65.16.98.11-.08.21-.16.31-.24.28-.03.57-.07.85-.11 1.05.11.7 1.43 1.14 2.09.1.11.19.21.29.32h.16c.05-.19.11-.39.16-.57h.08c.08-.03.16-.07.23-.11.51-.02 3.05-.13 3.13.41-.11.14-.23.27-.34.41-1.58.75-2.88 1.6-4.35 2.55v-.08h-.08v.08c-.21.14-.42.28-.63.41v.17c-.37.85-1.02 1.24-1.96 1.3v.09c-.1.05-.21.11-.31.16-.19.14-.36.27-.55.41.12.03.26.07.38.1 1.26.09 1.85.24 2.82-.84.82 0 .92 1.13.63 1.63-.1.19-.21.39-.31.58-.05.05-.1.11-.15.16-.03.05-.06.11-.09.16.11.08.21.16.31.25v.24s.13.16.26.34c.23.3.53.73.68.97v.08h.08v-.08c.26 0 .81-1.13 1.4-1.23.63 0 0 1.3-.15 1.47.02.03.05.05.07.09-.48 0-.87.75-1.48.82-.28.3-.58.6-.87.9-.28.32-.57.65-.86.98-.02.16-.05.33-.08.49.19 0 1.6 1.31 2.81 1.31v.16h.55v.33h.16v-.16s.05-.06.07-.08c.06.04.12.07.18.1.78.11 1.74-3.74 2.49-4.52.16-.04.31-.09.48-.11 2.33-.3 1.79 2.15.7 3.22v.08c-.32.24-.63.49-.95.73v.33h.71c.08-.08.16-.18.24-.27 1.46-1.84 2.52.47 2.66 1.91h.07c0-.89.62-2.45 1.33-2.95.26.13.52.27.78.41-.05-.05-.11-.1-.16-.16h.31c0-.77.63-2.56 1.59-1.59.68.68.15 2.18.13 3.06.07-.04.14-.08.22-.12.38-.39.76-.79 1.15-1.17.42-.04.85-.08 1.27-.12.44-.29.88-.59 1.33-.88 1.24-.24 1.1.98.81 1.72-.02.63-.06 1.25-.08 1.89h.08v.08c.62 0 .46-1 .67-1.36.7-.55 1.38-1.12 2.08-1.66.61-1.23-.53-2.72-.28-3.17.46-.83 1.51.47 1.91.79.49 0 2.49-3.92 3.84-1.3 1.28 0 8.38.33 6.96 2.12-.46-.08-.93-.16-1.41-.24-.05-.03-.1-.06-.16-.09 0 .48-3.34.24-4.07.41h-.08c-.09.11-.21.22-.31.32-.73 0-.72 1.48-2.27.25h-.08c-.1.17-.21.33-.31.5.03.05.05.1.08.16.08.62.16 1.25.23 1.88h.08v.08h.08v-.08c.97 0 2.19-1.69 2.66.24-.18.55-.37 1.09-.55 1.64v.16c.43 0 .85.18 1.31.18-.01-.09-.04-.16-.05-.24.05-.92.21-2.9.88-3.52 2.04.95 2.02 3.6-.39 3.88.08.05.16.11.23.16 1.85.92 4.2-.89 4.37 2.18.11.24.2.49.29.73.24-.09.47-.16.71-.25-.02 0 .08-1.36.51-1.42.6-.08.43.95.5 1.34.05.03.1.05.15.07.9-.13 1.25-1.06 2.36-1.13 0-1.61-.69-1.46.47-3.19.22.14.42.27.64.41.82.95.28 2.55 1 3.01.6.18 1.19.36 1.8.54.16.21.32.42.47.64-.33.3-.67.6-1.01.89v.08c.89 0 1.08.92.78 1.56v1.24l.87 3.53c.42.77 1.12.93 1.27 1.93l.12 2.07c.12.59.56.96.51 1.69-.11 1.48-1.41 2.74-.82 4.45.17.14.33.26.5.4.95-.04 1.93-.39 2.77-.39.58.18 1.16.35 1.75.52.96-.12 1.93-.22 2.88-.35 1.39-.02 2.55.37 3.99.19-.5-1.23-1-2.46-1.49-3.7-.79-2.93-.64-10.26 1.41-12.42 0-.35 1.97-2.62 2.36-2.94.35-.17.68-.33 1.04-.49.81-.58 3.38-4.78 4.62-3.48.98 1.02-1.22 1.44-1.59 1.83 0 0 1.29 1.04 1.41 1.63h.08v.09c.31-.39.62-.77.92-1.15.52-.26.96.64 1.11.99.16.11.31.22.47.33v-.08c.05-.31.1-.6.15-.9 1.63 0 1.04-.39 2.12.98 0 .4 1.24.81 1.39.18.28-1.17-3.63-2.35-.69-3.29.08-.22.16-.44.24-.65 0-1.03-1.42-1.02-.08-1.88.02-.05.05-.11.08-.16-.09-.05-.18-.08-.27-.12-1.6-1.01-1.77.73-2.39.38-.08-.09-.16-.2-.23-.3-.75-2.28 3.96-2.38 5.13-1.94.12.11.23.22.33.34.02.04.03.08.04.12-.07.62-.14 1.22-.22 1.82.12 1.23.9 1.84.83 3.14h.08c.29-.02.57-.05.86-.08 0 .57 1.08.76 1.48.82h.08v-.17c-.26-.32-.52-.65-.79-.98 1.01 0 1.79-.47 2.04.9.54 0 1.31 0 1.65.4.53.63-.23 1.96.41 2.37.45.28 2.72-.75 3.52-.26.5-.62.07-1.21 1.04-1.62.46-.21 1.78.07 2.98.45-.03-.05-.09-.12-.09-.18.42.09.66.18.84.43.66.25 1.21.5 1.44.68.24.42.5.84.74 1.26.07.03.15.05.23.08.07-.01.15-.03.22-.04.95-.51 1.76-.17 2.13.85.18-.08.36-.16.55-.24 0-1.99 1.54.07 1.8.65v.09h.16c.23-.16.46-.33.7-.5 0-1.1-1.73-1.38.24-2.21.02-.05.04-.1.06-.16-.18-1.47-2.97-.88-2.1-3.1v-.08c-.6 0-3-.11-3-.9 0-1.21 2.25-.59 2.61-1.55h.78c.39 0 .54 1.28.62 1.55h.09c.29-.39.57-.77.86-1.15-.37-.36-.73-.74-1.1-1.1-.44-.15-.87-.29-1.3-.43-.77-.43-2.54-1.98-3.4-1.98h-.08c-.18.05-.38.09-.57.12-1.01.15-3.06-.58-3.15-1.78-.1-1.37 1.26-1.27 2.15-1.04 1.11 0 1.26 1.71 1.41 2.53h.09v-.08c.63 0 .79-4.01 4.22-3.03.55.1 1.09.22 1.64.33.09.25.16.49.24.74.11.02.21.05.32.08v.08h-.16c.38.35.78.7 1.17 1.06.6-.19 1.2-.39 1.8-.58v.25c0 .07.51-.46.53-.48.26-.3.55-.56.95-.62.31-.03.26.09.46.19.22.1.13.08.4-.05.48-.27 1.03-.32 1.58-.31.39 0 1.05-.05.82-.62-.3-.77-1.37.16-1.77.36-.25.12-.57.29-.79.03-.14-.17-.09-.45-.11-.66-.05-.43-.16-.85-.02-1.29-.09.29-.24.52-.46.58-1.25.39-1.03-1.3-1.39-1.96-.35-.62-2.19-1.05-2.92-.89-.05-.03-.1-.05-.16-.09.06-.03.11-.04.16-.07-.09.02-.21.04-.31.07-.73.22-1.47.45-2.19.66v.09h-.16v-.09h-.16s.06.05.09.09c-.11.22-.21.43-.31.66h-.08l-.08.08h-.16c-.11-.08-.23-.14-.35-.22-.01 0-2.08-3.19-2.08-3.19-.04-.35.32-.66.55-.84 1.09.24 4.06 2.13 4.47.24h.08v-.08h.24v.58h.08v.08h.15c.08-.11.16-.21.23-.33v-.41h.08s1.2.13.7 1.06c0 1.46 3.73-1.15 4.14.41-.18.52-.36 1.03-.54 1.55.41 0 .6.94.46 1.7.12-.41.28-.8.45-1.14-.02-.03-.04-.05-.08-.09-.1-.24-.21-.48-.31-.73v-.26c.23-.81.56-1.97-.31-2.45 0 0-.18-.86.4-.98 0 .21 1.71.83 2.03.81.89.36 1.78.71 2.67 1.06h.23c.11.08.21.17.31.25v-.08h.07s-.05.11-.07.16l-.08.08c.1.05.21.11.31.16v-.09h.07l-.12-.66c-.03 0-.05.02-.07.03-.61 0-.44-.7-.24-.98.53.08.96.18 1.33.56h-.08c-.17.07-.35.14-.51.21.38-.03.74-.05 1.11-.06l.16-.16c-.18 0 1.14.11 1.88-.75v-.08c.08.05.16.12.24.17.05.03.1.05.16.08.02-.03.05-.05.08-.08v-.58c-.18.08-.36.17-.55.25"/></svg>
